<svg width="52" height="52" viewBox="0 0 52 52" fill="none" xmlns="http://www.w3.org/2000/svg"><path d="M51.212 32.355C47.706 46.379 33.678 54.705 19.65 51.2 5.623 47.694-2.706 33.67.8 19.645 4.308 5.621 18.336-2.705 32.364.8c13.808 3.506 22.356 17.53 18.85 31.555z" fill="#403F3F"/><path fill-rule="evenodd" clip-rule="evenodd" d="M15.3 24.022c.5-.099 2.1-.791 2.6-1.088.9-.396 1.8-.692 2.7-1.088.7-.297 5-2.176 5.4-2.176.6-.099 9 4.055 10.5 4.55-1-1.286-9.4-14.638-10.4-16.22-.4.495-.9 1.385-1.3 1.978l-4 6.132c-.9 1.384-1.8 2.67-2.7 4.055-.6.593-2.4 3.461-2.8 3.857z" fill="#fff"/><path fill-rule="evenodd" clip-rule="evenodd" d="M15 26.494l11.1 6.132c.4-.098 1-.494 1.3-.692l9.5-5.34c-1.2-.495-10.5-4.748-10.9-4.748l-11 4.648z" fill="#fff"/><path fill-rule="evenodd" clip-rule="evenodd" d="M15.4 29.165C16.3 30.352 25.3 43.11 26.2 44L37 29.165c-.5.395-2 1.187-2.7 1.483l-5.5 3.066c-3.4 1.88-2 1.978-5.5-.099L18 30.747c-.6-.395-2.2-1.187-2.6-1.582z" fill="#fff"/></svg>