<svg width="52" height="52" viewBox="0 0 52 52" fill="none" xmlns="http://www.w3.org/2000/svg"><path d="M51.212 32.355C47.706 46.379 33.678 54.705 19.65 51.2 5.623 47.694-2.706 33.67.8 19.645 4.308 5.621 18.336-2.705 32.364.8c13.808 3.506 22.356 17.53 18.85 31.555z" fill="#F7931A"/><path d="M37.404 22.27c.438-3.506-2.192-5.259-5.699-6.573l1.096-4.602-2.85-.658-1.095 4.602c-.658-.219-1.535-.438-2.192-.438l1.096-4.602-2.85-.657-1.095 4.601c-.658-.219-1.316-.219-1.754-.438l-3.945-.876-.658 3.068s2.192.438 1.973.438c1.096.219 1.315 1.095 1.315 1.753l-1.315 5.259h.22-.22l-1.973 7.45c-.219.438-.438.877-1.315.657l-1.972-.438-1.316 3.287 3.727.877c.657.219 1.315.438 1.972.438l-1.096 4.82 2.85.658 1.096-4.602a27.6 27.6 0 012.191.658L22.5 41.554l2.849.657 1.096-4.82c4.822.876 8.548.657 10.082-3.945 1.315-3.506 0-5.478-2.63-7.012 1.754-.439 3.288-1.534 3.507-4.164zm-6.356 9.204c-.877 3.506-6.795 1.534-8.768 1.095l1.535-6.354c1.972.657 8.11 1.534 7.233 5.259zm.876-9.204c-.876 3.287-5.698 1.534-7.452 1.096l1.315-5.697c1.754.438 6.795 1.314 6.137 4.601z" fill="#fff"/></svg>