<svg width="52" height="52" viewBox="0 0 52 52" fill="none" xmlns="http://www.w3.org/2000/svg"><path d="M51.212 32.355C47.706 46.379 33.678 54.705 19.65 51.2 5.623 47.694-2.706 33.67.8 19.645 4.308 5.621 18.336-2.705 32.364.8c13.808 3.506 22.356 17.53 18.85 31.555z" fill="#5CDEDA"/><path d="M27.758 19.224c1 .04 3.4-.204 4.16.285.92.572 1.16 2.081.52 2.98-.68.979-2.12.816-3.36.816h-3.96a576.95 576.95 0 00-3.359 5.305c2.4.081 5.08 0 7.44 0 .999 0 2.519-.123 2.999.49.72.775.76 1.836.24 2.734-.56.98-1.64.897-2.64.897-2.08 0-9.679.041-10.679.041-1.12 1.714-2.2 3.428-3.28 5.142 3.04 0 6.04.041 8.88.041 2.24 0 6.599.245 8.559-.408 3.36-1.143 5.319-5.06 4.559-8.448-.4-1.918-.56-1.632-1.44-3.142.76-1.387 1.28-1.714 1.52-3.51.6-4.203-2.36-8.243-6.84-8.406-.599.898-2.679 4.162-3.319 5.183z" fill="#fff"/><path d="M15.84 37.914a367.64 367.64 0 013.28-5.142v-4.121h2.639c.28-.45 3.24-5.102 3.36-5.306l-6-.04.08-4.04 8.56-.041c.68-1.061 2.719-4.285 3.319-5.224H14v23.914h1.84z" fill="#fff"/></svg>