<svg width="52" height="52" viewBox="0 0 52 52" fill="none" xmlns="http://www.w3.org/2000/svg"><path d="M51.212 32.355C47.706 46.379 33.678 54.705 19.65 51.2 5.623 47.694-2.706 33.67.8 19.645 4.308 5.621 18.336-2.705 32.364.8c13.808 3.506 22.356 17.53 18.85 31.555z" fill="#5DA4E6"/><path d="M29.342 16h-9.07l-.75 4.148h8.246c4.048 0 5.247 1.482 5.172 3.852 0 1.26-.525 3.333-.825 4-.6 1.778-1.874 3.852-6.671 3.852h-7.946L16.748 36h9.07c3.224 0 4.573-.37 5.998-1.037 3.223-1.482 5.097-4.593 5.847-8.667 1.124-6-.3-10.296-8.321-10.296z" fill="#fff"/><path d="M16.298 23.926c-2.398 0-2.698 1.556-2.923 2.445-.3 1.185-.375 1.703-.375 1.703h9.295c2.4 0 2.7-1.555 2.924-2.444.3-1.185.375-1.704.375-1.704h-9.296z" fill="#fff"/></svg>