<svg width="90" height="60" viewBox="0 0 90 60" fill="none" xmlns="http://www.w3.org/2000/svg"><path d="M82.842 59.816c-4.18 0-6.66-2.109-6.85-5.146h3.998c0 1.012.569 2.36 3.042 2.444 1.714 0 2.663-1.012 2.663-1.773-.19-1.18-1.714-1.264-3.232-1.522-1.714-.245-3.043-.587-3.998-1.006-1.328-.678-2.094-2.116-2.094-3.631 0-2.702 2.29-4.81 6.282-4.81 3.807 0 6.28 1.94 6.464 4.894h-3.802c0-.755-.19-2.025-2.473-2.025-1.524 0-2.473.251-2.663 1.348 0 1.522 3.232 1.438 5.706 2.025 2.283.593 3.808 2.025 3.808 4.056 0 3.714-3.043 5.146-6.85 5.146zM9.995 34.895l13.125-7.513 7.04 11.904H12.468m23.251 6.27h3.656v13.889h-3.656zM3.903 52.078c0 2.36 2.094 4.301 4.37 4.301 2.48 0 4.378-1.941 4.378-4.301 0-2.277-1.897-4.302-4.377-4.302-2.277 0-4.37 2.025-4.37 4.302zm4.18 7.764c-4.18 0-7.792-3.463-7.792-7.764 0-4.302 3.612-7.68 7.793-7.68 1.714 0 3.239.425 4.567 1.347v-1.18h3.808V59.5H12.65v-.928c-1.139.844-2.853 1.27-4.567 1.27zm50.801-20.559L40.624 7.89 53.747.294l22.828 38.989m-55.17 12.795c0 2.36 1.904 4.301 4.377 4.301 2.277 0 4.377-1.941 4.377-4.301 0-2.277-2.1-4.302-4.377-4.302-2.473 0-4.377 2.025-4.377 4.302zm4.188 7.764c-4.378 0-7.8-3.463-7.8-7.764 0-4.302 3.422-7.68 7.8-7.68 1.707 0 3.232.425 4.566 1.347v-6.326h3.802V59.5h-3.802v-.928c-1.334.844-2.859 1.27-4.566 1.27zm-.188-38.365l13.315-7.423 14.65 25.228H39.478v3.715h-3.802v-3.715m51.55 3.832c-.955 0-1.904-.845-1.904-1.858 0-1.012.949-1.857 1.904-1.857 1.139 0 1.904.845 1.904 1.857 0 1.013-.765 1.858-1.904 1.858zm0-3.457c-.955 0-1.525.755-1.525 1.6 0 .844.57 1.605 1.525 1.605.949 0 1.518-.76 1.518-1.606 0-.845-.57-1.599-1.518-1.599z" fill="#2A2929"/><path d="M87.619 42.276l-.38-.845h-.38v.845h-.287V40.25h.857c.19 0 .57.258.57.594a.6.6 0 01-.38.587l.38.845h-.38zm-.38-1.768h-.38v.671h.38c.38 0 .38-.084.38-.335 0-.174 0-.336-.38-.336zm-25.138 11.57c0 2.36 1.904 4.301 4.378 4.301 2.283 0 4.37-1.941 4.37-4.301 0-2.277-2.087-4.302-4.37-4.302-2.474 0-4.378 2.025-4.378 4.302zm4.181 7.764c-4.37 0-7.792-3.463-7.792-7.764 0-4.302 3.422-7.68 7.792-7.68 1.715 0 3.239.425 4.567 1.347v-1.18h3.618V59.5H70.85v-.928c-1.328.844-2.852 1.27-4.567 1.27zm-21.67-7.764c0 2.36 2.094 4.301 4.378 4.301 2.473 0 4.377-1.941 4.377-4.301 0-2.277-1.904-4.302-4.377-4.302-2.284 0-4.378 2.025-4.378 4.302zm8.755-12.66h3.801V59.5h-3.801v-.928c-1.145.844-2.67 1.27-4.377 1.27-4.378 0-7.99-3.463-7.99-7.764 0-4.302 3.612-7.68 7.99-7.68 1.707 0 3.232.425 4.377 1.347v-6.326z" fill="#2A2929"/></svg>