<svg width="116" height="35" viewBox="0 0 116 35" fill="none" xmlns="http://www.w3.org/2000/svg"><g clip-path="url(#clip0)" fill-rule="evenodd" clip-rule="evenodd"><path d="M71.964 27.371C65.224 32.346 55.453 35 47.04 35c-11.795 0-22.414-4.368-30.448-11.633-.63-.571-.065-1.35.692-.905 8.67 5.05 19.39 8.09 30.463 8.09 7.468 0 15.684-1.548 23.238-4.758 1.14-.486 2.095.748.98 1.577z" fill="#F90"/><path d="M74.766 24.16c-.858-1.101-5.695-.52-7.866-.262-.662.08-.763-.496-.167-.91 3.853-2.715 10.174-1.931 10.912-1.021.737.915-.192 7.26-3.813 10.288-.555.465-1.085.217-.838-.4.813-2.032 2.636-6.587 1.772-7.694z" fill="#F90"/><path d="M67.051 3.822V1.183c0-.4.303-.667.667-.667h11.8c.379 0 .682.273.682.667v2.26c-.005.38-.323.875-.889 1.658l-6.115 8.741c2.272-.055 4.67.283 6.731 1.446.465.263.59.647.626 1.026v2.817c0 .384-.424.834-.868.601-3.63-1.906-8.453-2.113-12.467.02-.41.223-.839-.222-.839-.606V16.47c0-.43.006-1.162.435-1.815l7.084-10.172h-6.165c-.379 0-.682-.268-.682-.662zM24.005 20.288h-3.59a.679.679 0 01-.642-.612V1.23c0-.37.308-.663.692-.663h3.348a.676.676 0 01.651.617v2.412h.066c.873-2.331 2.515-3.418 4.726-3.418 2.247 0 3.65 1.087 4.66 3.418.87-2.331 2.844-3.418 4.96-3.418 1.504 0 3.15.622 4.155 2.017 1.136 1.552.904 3.807.904 5.784L43.93 19.62a.678.678 0 01-.692.667h-3.585a.683.683 0 01-.646-.667V9.843c0-.778.07-2.72-.101-3.458-.268-1.238-1.07-1.587-2.111-1.587-.869 0-1.777.581-2.146 1.511-.369.93-.333 2.488-.333 3.534v9.778a.678.678 0 01-.692.667h-3.585a.68.68 0 01-.646-.667l-.006-9.778c0-2.057.339-5.086-2.211-5.086-2.58 0-2.48 2.953-2.48 5.086v9.778a.677.677 0 01-.691.667M90.36.177c5.326 0 8.21 4.58 8.21 10.404 0 5.627-3.187 10.091-8.21 10.091-5.232 0-8.08-4.58-8.08-10.288 0-5.743 2.883-10.207 8.08-10.207zm.03 3.766c-2.647 0-2.813 3.61-2.813 5.86 0 2.255-.035 7.068 2.782 7.068 2.782 0 2.914-3.883 2.914-6.25 0-1.556-.066-3.417-.536-4.893-.404-1.284-1.206-1.785-2.348-1.785zm15.087 16.345h-3.575a.682.682 0 01-.646-.667l-.005-18.453c.03-.339.328-.602.691-.602h3.328a.686.686 0 01.641.516v2.82h.066C106.982 1.38 108.39.178 110.87.178c1.61 0 3.181.581 4.191 2.174C116 3.828 116 6.31 116 8.095v11.613c-.041.323-.338.581-.692.581h-3.6c-.328-.025-.601-.268-.636-.581V9.687c0-2.018.232-4.97-2.247-4.97-.874 0-1.677.586-2.076 1.476-.505 1.128-.57 2.25-.57 3.494v9.934a.69.69 0 01-.702.667m-47.833-8.812c0 1.4.035 2.568-.672 3.812-.57 1.011-1.48 1.633-2.484 1.633-1.378 0-2.186-1.051-2.186-2.603 0-3.064 2.742-3.62 5.342-3.62v.778zm3.62 8.762a.749.749 0 01-.848.085c-1.192-.99-1.409-1.45-2.06-2.396-1.97 2.012-3.368 2.614-5.918 2.614-3.025 0-5.373-1.866-5.373-5.602 0-2.917 1.576-4.904 3.828-5.874 1.949-.86 4.67-1.011 6.75-1.249v-.465c0-.855.067-1.866-.438-2.604-.435-.662-1.273-.935-2.015-.935-1.368 0-2.585.703-2.883 2.159-.06.323-.298.642-.626.657l-3.48-.374c-.292-.066-.62-.304-.535-.753C48.464 1.273 52.282 0 55.695 0c1.747 0 4.03.465 5.408 1.79 1.747 1.633 1.58 3.812 1.58 6.183v5.601c0 1.684.697 2.422 1.354 3.332.227.324.277.713-.016.956-.732.611-2.035 1.749-2.752 2.386l-.005-.01m-50.685-8.762c0 1.4.035 2.569-.672 3.812-.57 1.011-1.474 1.633-2.484 1.633-1.379 0-2.182-1.051-2.182-2.603 0-3.064 2.742-3.62 5.338-3.62v.778zm3.62 8.762a.749.749 0 01-.848.086c-1.192-.991-1.404-1.451-2.06-2.397-1.97 2.013-3.363 2.614-5.918 2.614C2.353 20.541 0 18.676 0 14.94c0-2.917 1.58-4.904 3.827-5.875 1.95-.86 4.671-1.011 6.752-1.249v-.465c0-.854.065-1.865-.435-2.604-.439-.662-1.277-.935-2.014-.935-1.369 0-2.59.703-2.889 2.159-.06.323-.298.642-.62.657l-3.485-.374C.843 6.188.52 5.951.601 5.501 1.404 1.274 5.216 0 8.629 0c1.748 0 4.03.464 5.408 1.789 1.747 1.633 1.58 3.812 1.58 6.183v5.602c0 1.683.698 2.421 1.354 3.331.232.324.283.713-.01.956-.732.611-2.035 1.749-2.752 2.386l-.01-.01" fill="#000"/></g><defs><clipPath id="clip0"><path fill="#fff" d="M0 0h116v35H0z"/></clipPath></defs></svg>