<svg width="90" height="55" viewBox="0 0 90 55" fill="none" xmlns="http://www.w3.org/2000/svg"><path d="M24.023 17.17h-8.377l-.692 3.757h7.615c3.739 0 4.846 1.341 4.777 3.488 0 1.14-.484 3.018-.761 3.622-.554 1.61-1.731 3.487-6.162 3.487h-7.338l-.693 3.757h8.377c2.977 0 4.223-.336 5.539-.94 2.977-1.341 4.707-4.158 5.4-7.847 1.038-5.433-.277-9.323-7.685-9.323zm25.962 18.178l.623-3.287h7.2c.553 0 .969-.335 1.038-.872.139-.537-.138-.872-.761-.872h-3.462c-2.7 0-4.015-1.543-3.53-4.159.484-2.615 2.353-4.158 5.053-4.158h7.823l-.623 3.287h-6.854c-.553 0-.969.335-1.038.872-.139.536.138.872.761.872h3.462c2.7 0 4.015 1.542 3.53 4.158-.484 2.616-2.284 4.159-5.053 4.159h-8.17zm-10.87 0c-4.43 0-6.438-2.348-5.677-6.64.762-4.293 3.67-6.64 8.1-6.64h7.893l-2.423 13.347-7.893-.067zm5.123-10.061h-2.007c-2.423 0-3.877 1.006-4.293 3.42-.484 2.348.485 3.421 2.908 3.421h2.216l1.177-6.841zM73.8 35.347l1.385-7.78c.277-1.543-.416-2.213-1.939-2.213h-2.215l-1.8 9.927h-4.57l3.324-18.177h4.569l-.9 4.829h3.392c4.016 0 5.47 1.677 4.708 5.567l-1.385 7.78-4.569.067z" fill="#fff"/><path d="M11.977 24.348c-2.215 0-2.492 1.408-2.7 2.213-.277 1.073-.346 1.543-.346 1.543h8.584c2.216 0 2.493-1.409 2.7-2.214.277-1.073.347-1.543.347-1.543h-8.585z" fill="#fff"/></svg>