<svg width="90" height="55" viewBox="0 0 90 55" fill="none" xmlns="http://www.w3.org/2000/svg"><path d="M12.946 34.677c4.627 0 8.377-3.634 8.377-8.116 0-4.482-3.75-8.116-8.377-8.116-4.626 0-8.377 3.634-8.377 8.116 0 4.482 3.75 8.116 8.377 8.116z" fill="#BDBDBD"/><path d="M11.63 21.598l-1.315 4.762-.9.335L9 28.238l.9-.336-.762 2.75H17.1l.554-2.012h-4.777l.554-1.945.9-.335.415-1.543-.9.268.97-3.488H11.63zm10.385 11.268l2.493-11.67H27l-2.077 9.725h6.092l-.346 1.945h-8.654zm12.047-8.451h2.353l-1.869 8.45h-2.354l1.87-8.45zm.692-3.22h2.354l-.416 2.08H34.34l.415-2.08zm2.7 4.896l.346-1.677h1.177l.277-1.34 2.7-1.544-.623 2.952h1.454l-.346 1.676h-1.454l-.762 3.555c-.138.671-.208 1.006-.208 1.073 0 .202.07.336.139.403.138.067.346.134.623.134.07 0 .346 0 .761-.067l-.346 1.677c-.415.067-.83.134-1.246.134-.83 0-1.454-.134-1.8-.47-.346-.335-.554-.737-.554-1.274 0-.268.07-.872.277-1.81l.762-3.422h-1.177zm13.5 3.219h-5.885v.202c0 .537.139 1.006.485 1.342.346.335.761.536 1.177.536.761 0 1.384-.402 1.8-1.207l2.077.335a4.958 4.958 0 01-1.662 1.878 4.465 4.465 0 01-2.285.604c-1.176 0-2.146-.335-2.838-1.073-.761-.738-1.108-1.677-1.108-2.817 0-1.14.346-2.214.97-3.086.9-1.207 2.215-1.81 3.877-1.81 1.038 0 1.938.335 2.561.938.623.671.97 1.543.97 2.683 0 .604 0 1.073-.14 1.476zm-2.008-1.34v-.202c0-.603-.138-1.073-.415-1.408-.277-.336-.692-.47-1.177-.47-.485 0-.9.201-1.316.537-.415.335-.623.872-.761 1.543h3.67zm8.793 1.676l2.284.336c-.346 1.006-.97 1.744-1.661 2.28C57.6 32.8 56.769 33 55.8 33c-1.108 0-2.008-.335-2.63-.94-.624-.67-.97-1.542-.97-2.615 0-.939.208-1.81.623-2.616.416-.805.97-1.475 1.8-1.945.762-.47 1.662-.67 2.63-.67 1.04 0 1.87.268 2.493.804.623.537.97 1.208 1.039 2.08l-2.216.2c-.069-.469-.207-.804-.415-1.072-.277-.202-.554-.336-.97-.336-.484 0-.9.134-1.245.47-.416.335-.693.805-.9 1.475-.208.671-.347 1.275-.347 1.811 0 .47.139.872.346 1.14.277.269.554.403.97.403.415 0 .761-.134 1.107-.402.139-.202.416-.604.623-1.14zm3.738-.268c0-1.543.485-2.817 1.385-3.756.9-.94 2.077-1.409 3.6-1.409 1.315 0 2.284.336 2.977 1.006.692.671 1.107 1.61 1.107 2.75 0 1.342-.485 2.55-1.385 3.555-.9 1.007-2.076 1.476-3.6 1.476-.83 0-1.523-.134-2.215-.47-.623-.335-1.107-.737-1.384-1.341-.277-.537-.485-1.14-.485-1.811zm6.715-1.677c0-.536-.138-1.006-.484-1.274-.346-.336-.762-.47-1.246-.47-.485 0-.97.134-1.385.47-.415.335-.692.738-.9 1.341-.208.604-.346 1.14-.346 1.61 0 .604.138 1.073.484 1.409.347.335.762.536 1.246.536.624 0 1.177-.268 1.593-.805.761-.805 1.038-1.744 1.038-2.817zm5.054-3.286H75.6l-1.8 8.45h-2.354l1.8-8.45zm.693-3.22h2.353l-.415 2.08h-2.354l.416-2.08zm4.015 3.22h2.215l-.207 1.073c.553-.47 1.107-.805 1.592-1.006.484-.201.969-.269 1.523-.269.692 0 1.315.202 1.661.604.416.402.624.94.624 1.61 0 .268-.07.872-.277 1.677l-1.039 4.762h-2.354l1.039-4.762c.138-.738.207-1.14.207-1.275 0-.268-.069-.536-.276-.67-.208-.135-.416-.269-.762-.269-.346 0-.762.134-1.177.403-.415.268-.761.67-.97 1.14-.207.335-.345 1.006-.622 2.012l-.762 3.488h-2.215l1.8-8.518z" fill="#fff"/></svg>