<svg width="90" height="55" viewBox="0 0 90 55" fill="none" xmlns="http://www.w3.org/2000/svg"><path d="M17.846 46.878c0 .146-.154.293-.308.293h-6.153c.154 1.463 1.307 2.78 2.923 2.78 1.077 0 1.923-.366 2.538-1.244.077-.146.23-.22.385-.146.077.073.154.146.154.22 0 .073 0 .146-.077.219-.616 1.024-1.846 1.536-3.077 1.536-2.077 0-3.539-1.756-3.539-3.658 0-1.903 1.462-3.659 3.539-3.659 2.154.074 3.615 1.83 3.615 3.659zm-.615-.22c-.154-1.463-1.308-2.78-2.923-2.78-1.616 0-2.77 1.317-2.923 2.78h5.846zm8.077-3.22c.154 0 .307.147.307.294 0 .146-.153.292-.307.292h-1.616v6.147c0 .146-.154.292-.307.292-.154 0-.308-.146-.308-.292v-6.147h-1.539c-.153 0-.307-.146-.307-.292 0-.147.154-.293.307-.293h1.539V41.17c0-.147.077-.293.23-.293.232 0 .385.073.385.293v2.268h1.616zm10 2.928v3.731c0 .147-.154.293-.308.293s-.308-.146-.308-.293v-3.731c0-1.244-.769-2.488-2.23-2.488-1.847 0-2.693 1.536-2.616 3.146v3c0 .147-.077.293-.23.293-.231 0-.385-.073-.385-.293V37.951c0-.146.154-.293.307-.293.154 0 .308.147.308.293v6.878c.539-.878 1.462-1.463 2.539-1.463 1.923-.073 2.923 1.463 2.923 3zm11 .512c0 .146-.154.293-.308.293h-6.154c.154 1.463 1.308 2.78 2.923 2.78 1.077 0 1.923-.366 2.539-1.244.077-.146.23-.22.384-.146.077.073.154.146.154.22 0 .073 0 .146-.077.219-.615 1.024-1.846 1.536-3.077 1.536-2.077 0-3.538-1.756-3.538-3.658 0-1.903 1.461-3.659 3.538-3.659 2.077.074 3.616 1.83 3.616 3.659zm-.693-.22c-.153-1.463-1.307-2.78-2.923-2.78-1.615 0-2.769 1.317-2.923 2.78h5.846zm8.154-2.926c0 .22-.077.292-.307.292-1.77.22-2.616 1.61-2.616 3.293v2.78c0 .147-.077.293-.23.293-.231 0-.385-.073-.385-.293v-6.365c0-.147.077-.293.23-.293.231 0 .385.073.385.293v1.317c.539-.805 1.539-1.61 2.539-1.61.23 0 .384.073.384.293zm10.077 3.146c0 .146-.154.293-.307.293h-6.154c.154 1.463 1.307 2.78 2.923 2.78 1.077 0 1.923-.366 2.538-1.244.077-.146.23-.22.385-.146.077.073.154.146.154.22 0 .073 0 .146-.077.219-.616 1.024-1.846 1.536-3.077 1.536-2.077 0-3.539-1.756-3.539-3.658 0-1.903 1.462-3.659 3.539-3.659 2.154.074 3.615 1.83 3.615 3.659zm-.692-.22c-.154-1.463-1.308-2.78-2.923-2.78-1.616 0-2.77 1.317-2.923 2.78h5.846zm10.538-2.853v6.366c0 .146-.153.292-.307.292s-.308-.146-.308-.292v-1.244c-.462.951-1.385 1.683-2.538 1.683-1.847 0-2.847-1.464-2.847-3.074v-3.731c0-.147.154-.293.308-.293s.308.146.308.293v3.731c0 1.244.769 2.488 2.23 2.488 2.077 0 2.539-1.829 2.539-3.878v-2.341c0-.147.154-.366.385-.293.153 0 .23.146.23.293zm15.539 2.56v3.732c0 .147-.154.293-.308.293s-.308-.146-.308-.293v-3.731c0-1.244-.769-2.488-2.23-2.488-1.847 0-2.539 1.902-2.539 3.366v2.853c0 .147-.154.293-.308.293-.153 0-.307-.146-.307-.293v-3.731c0-1.244-.77-2.488-2.231-2.488-1.846 0-2.615 1.39-2.538 3.22v2.925c0 .147-.077.293-.231.293-.231 0-.385-.073-.385-.293v-6.366c0-.146.077-.292.23-.292.232 0 .386.073.386.292v1.098c.538-.878 1.461-1.463 2.538-1.463 1.23 0 2.23.731 2.615 1.829.539-1.098 1.462-1.83 2.77-1.83 1.769 0 2.846 1.537 2.846 3.074z" fill="#fff"/><path opacity=".6" d="M50 16.17l-10.23 4.39L50 26.342l10.23-5.78L50 16.17z" fill="#fff"/><path opacity=".45" d="M39.77 20.561L50 26.341V4.392L39.77 20.56z" fill="#fff"/><path opacity=".8" d="M50 4.39v21.951l10.23-5.78L50 4.391z" fill="#fff"/><path opacity=".45" d="M39.77 22.39L50 36.146v-7.975l-10.23-5.78z" fill="#fff"/><path opacity=".8" d="M50 28.17v7.976l10.23-13.683L50 28.171z" fill="#fff"/></svg>