<svg width="90" height="55" viewBox="0 0 90 55" fill="none" xmlns="http://www.w3.org/2000/svg"><path d="M21.733 28.035c-1.107 4.292-5.538 6.841-9.969 5.768-4.43-1.073-7.061-5.366-5.954-9.659 1.108-4.292 5.539-6.841 9.97-5.768 4.361 1.073 7.061 5.366 5.953 9.659z" fill="#F7931A"/><path d="M17.372 24.948c.138-1.073-.692-1.61-1.8-2.012l.346-1.409-.9-.2-.346 1.408c-.208-.067-.485-.134-.693-.134l.347-1.409-.9-.201-.347 1.408c-.207-.067-.415-.067-.553-.134l-1.246-.268-.208.939s.692.134.623.134c.346.067.415.335.415.537l-.415 1.61h.07-.07l-.623 2.28c-.07.134-.139.268-.416.201l-.623-.134-.415 1.006 1.177.268c.207.067.415.134.623.134l-.346 1.476.9.201.346-1.408c.277.067.485.134.692.2l-.346 1.41.9.2.346-1.475c1.523.268 2.7.201 3.185-1.207.415-1.073 0-1.677-.83-2.147.553-.134 1.037-.47 1.107-1.274zm-2.008 2.817c-.277 1.073-2.146.47-2.77.335l.486-1.945c.623.202 2.561.47 2.284 1.61zm.277-2.817c-.277 1.006-1.8.47-2.354.335l.415-1.744c.554.135 2.147.403 1.939 1.41zm13.985-2.012c.692 0 1.246.134 1.73.335.485.201.9.537 1.177.94.346.402.554.871.693 1.34.138.537.207 1.074.207 1.678a6.57 6.57 0 01-.554 2.615 6.61 6.61 0 01-1.453 2.147 8.03 8.03 0 01-2.147 1.475 7.16 7.16 0 01-2.7.537h-.623c-.277 0-.692-.067-1.038-.067-.415-.067-.83-.134-1.246-.269-.416-.134-.9-.268-1.246-.469l3.6-14.622 3.253-.47-1.315 5.165c.277-.134.554-.201.83-.268.209 0 .485-.067.832-.067zm-2.7 8.652c.484 0 .969-.134 1.384-.335a2.93 2.93 0 001.108-.94c.277-.401.554-.804.762-1.273.207-.47.276-1.007.276-1.543 0-.67-.138-1.14-.346-1.543-.207-.335-.623-.537-1.246-.537-.208 0-.415.068-.762.068-.346.067-.623.2-.83.402l-1.385 5.5c.07 0 .139 0 .208.067h.484c.07.134.208.134.347.134zm9.9 2.147h-3.047l2.631-10.598h3.116l-2.7 10.598zm1.523-11.872c-.416 0-.831-.134-1.177-.403-.346-.268-.554-.604-.554-1.14 0-.268.07-.537.208-.805a2.41 2.41 0 01.484-.67c.208-.202.416-.336.692-.403.277-.134.554-.134.831-.134.416 0 .831.134 1.177.402.346.268.554.604.554 1.14 0 .269-.07.537-.208.805a2.4 2.4 0 01-.484.671 1.45 1.45 0 01-.693.402c-.276.135-.553.135-.83.135zm3.807-1.342l3.254-.47-.761 3.153h3.461l-.623 2.482h-3.461l-.9 3.689c-.07.335-.139.604-.139.872s0 .47.07.67c.069.202.207.336.415.47.207.134.554.134.9.134s.623 0 .969-.067c.277-.067.623-.134.97-.268l.207 2.28c-.416.134-.9.269-1.385.403-.484.134-1.038.134-1.73.134-.97 0-1.731-.134-2.216-.403-.554-.268-.9-.67-1.107-1.14-.208-.47-.347-1.006-.277-1.61 0-.603.138-1.274.277-1.945l2.076-8.384zm5.747 8.988c0-.939.138-1.744.484-2.549.277-.805.762-1.542 1.316-2.146.553-.604 1.246-1.073 2.076-1.409a7.16 7.16 0 012.7-.536 6.24 6.24 0 011.662.201c.485.134.97.268 1.315.47l-1.038 2.347c-.277-.134-.554-.201-.83-.268a4.962 4.962 0 00-1.109-.134c-1.038 0-1.869.335-2.423 1.006-.623.67-.9 1.61-.9 2.75 0 .67.139 1.207.485 1.677.277.402.9.603 1.662.603.415 0 .761-.067 1.176-.134a4.09 4.09 0 00.97-.335l.207 2.414c-.415.134-.83.269-1.315.403a6.244 6.244 0 01-1.662.201c-.83 0-1.592-.134-2.215-.335-.623-.269-1.108-.537-1.454-1.007a2.963 2.963 0 01-.83-1.408c-.208-.604-.277-1.207-.277-1.811zm13.638 4.561a5.542 5.542 0 01-1.938-.335c-.554-.202-.97-.537-1.316-.94a4.791 4.791 0 01-.83-1.408c-.208-.537-.278-1.14-.278-1.744 0-.805.139-1.61.416-2.415a7.21 7.21 0 011.177-2.146c.554-.67 1.177-1.14 1.938-1.61.762-.402 1.662-.603 2.631-.603.692 0 1.385.134 1.938.335.554.201.97.537 1.385.94.346.402.623.871.83 1.408.209.536.278 1.14.278 1.744 0 .805-.139 1.61-.416 2.414-.277.805-.623 1.543-1.177 2.147-.484.67-1.177 1.14-1.938 1.61-.762.402-1.662.603-2.7.603zm1.592-8.652c-.484 0-.83.134-1.177.402-.346.268-.623.604-.9.939-.207.402-.415.805-.553 1.274a4.5 4.5 0 00-.208 1.342c0 .67.138 1.207.346 1.543.208.402.623.536 1.177.536.485 0 .83-.134 1.177-.402.346-.269.623-.604.9-.94.208-.402.415-.804.554-1.274a4.53 4.53 0 00.207-1.341c0-.67-.138-1.207-.346-1.543-.207-.335-.623-.537-1.177-.537zm7.962 8.317h-3.046l2.63-10.598h3.116l-2.7 10.598zm1.454-11.872c-.416 0-.831-.134-1.177-.403-.346-.268-.554-.604-.554-1.14 0-.268.07-.537.208-.805.138-.268.277-.47.484-.67.208-.202.416-.336.693-.403.276-.134.553-.134.83-.134.416 0 .831.134 1.177.402.346.268.554.604.554 1.14 0 .269-.07.537-.208.805a2.41 2.41 0 01-.484.671 1.446 1.446 0 01-.693.402c-.276.135-.553.135-.83.135zm3.392 1.811c.208-.067.485-.134.761-.201.277-.068.624-.135.97-.269.346-.067.761-.134 1.177-.201.415-.067.9-.067 1.453-.067 1.593 0 2.77.47 3.393 1.341.623.94.692 2.147.346 3.756l-1.385 5.702h-3.115l1.385-5.567.207-1.006c.07-.336.07-.604 0-.872a.976.976 0 00-.415-.604c-.208-.134-.485-.201-.9-.201-.415 0-.83.067-1.246.134l-2.008 8.183H73.45l2.492-10.128z" fill="#fff"/></svg>