<svg width="90" height="55" viewBox="0 0 90 55" fill="none" xmlns="http://www.w3.org/2000/svg"><path d="M80.044 30.52c.034-.012.057-.046.08-.08a102.552 102.552 0 003.377-5.982c.126-.235.242-.482.357-.73.034-.056.058-.1.138-.1h2.178c.012 0 .023.01.023.01.012.046-.023.068-.034.102-1.625 2.997-3.33 5.938-5.267 8.755-.103.157-.219.314-.322.483a.205.205 0 01-.173.09h-1.82c-.116 0-.116 0-.14-.113a114.406 114.406 0 01-.575-3.367c-.127-.83-.254-1.65-.37-2.48-.08-.63-.16-1.258-.23-1.887-.057-.46-.103-.909-.15-1.369-.022-.224-.034-.19.185-.19h2.074c.058 0 .07.022.08.078 0 .09.012.18.012.28.035.898.116 1.808.196 2.706.058.73.127 1.459.208 2.188.046.505.104 1.055.173 1.605zm-4.829-4.749a3.8 3.8 0 00-1.083-.505 3.27 3.27 0 00-1.613-.022 1.31 1.31 0 00-.53.27c-.404.302-.438 1.01-.058 1.391.161.157.357.292.576.382a7.883 7.883 0 011.59.898c.312.224.565.516.75.853.138.247.23.527.264.808a3.279 3.279 0 01-.219 1.594 2.406 2.406 0 01-.806 1.01 3.889 3.889 0 01-1.59.662 7.088 7.088 0 01-2.12.09 6.104 6.104 0 01-1.948-.527c-.15-.068-.288-.169-.438-.247-.058-.034-.07-.056-.035-.124l.83-1.448c.035-.067.08-.078.15-.034.173.113.368.214.553.292a4.27 4.27 0 001.233.337c.553.056 1.095.045 1.602-.19.484-.225.657-.697.53-1.168a.685.685 0 00-.173-.292 2.356 2.356 0 00-.864-.572 7.736 7.736 0 01-1.256-.73c-.496-.348-.888-.797-1.038-1.392-.219-.864-.103-1.695.461-2.424.346-.438.83-.775 1.372-.943 1.578-.528 3.111-.393 4.586.37.196.101.196.113.092.292-.242.415-.484.842-.726 1.257a.327.327 0 00-.092.113z" fill="#D82A3C"/><path d="M29.04 22.516c-.288 1.168-.565 2.313-.853 3.48.138-.045.242-.09.346-.123a2.795 2.795 0 011.74.022 2.23 2.23 0 011.475 1.527c.645 2.065-.392 4.388-2.363 5.354a4.54 4.54 0 01-1.913.46 7.991 7.991 0 01-2.466-.303c-.16-.045-.31-.113-.46-.169-.07-.033-.093-.067-.07-.146.162-.64.312-1.268.473-1.908.518-2.11 1.037-4.209 1.544-6.32.115-.482.242-.965.357-1.447.012-.079.07-.135.15-.135l1.775-.27c.08-.01.173-.022.265-.022zm-2.201 8.991c.322.067.645.09.968.045a2.25 2.25 0 001.417-.864c.357-.46.588-1.022.634-1.594.046-.393 0-.786-.15-1.156a.676.676 0 00-.46-.415 1.684 1.684 0 00-1.372.19.383.383 0 00-.173.247c-.23.988-.484 1.964-.715 2.952-.046.18-.103.393-.15.595zm21.998-1.313a4.815 4.815 0 011.095-3.008 3.898 3.898 0 012.11-1.37 3.773 3.773 0 011.935.023c.853.236 1.406.774 1.694 1.583.196.583.265 1.212.173 1.818a5.36 5.36 0 01-.553 1.83 4.187 4.187 0 01-1.475 1.616c-.415.27-.876.438-1.372.505a4.094 4.094 0 01-1.567-.034c-1.037-.236-1.66-.887-1.924-1.874a4.32 4.32 0 01-.116-1.09zm4.979-1.336c0-.123-.012-.224-.012-.337a2.1 2.1 0 00-.173-.65.65.65 0 00-.472-.382 1.338 1.338 0 00-1.21.235 2.216 2.216 0 00-.645.775 3.65 3.65 0 00-.392 1.875c.011.269.08.538.219.785.092.18.265.303.46.348.392.101.807.023 1.13-.202.3-.213.53-.494.691-.82a3.86 3.86 0 00.404-1.627zm10.659 4.198l.196-.797c.265-1.077.53-2.166.795-3.255.08-.28.104-.584.08-.875a.691.691 0 00-.656-.663c-.334-.044-.668.012-1.003.045-.08.012-.092.068-.103.124-.093.393-.196.797-.288 1.19l-1.003 4.108c-.035.123-.035.123-.161.123h-1.833c-.034 0-.08 0-.115-.011.08-.314.161-.64.242-.954.473-1.886.945-3.783 1.418-5.669.011-.022.011-.044.011-.056.012-.1.07-.134.161-.157a8.615 8.615 0 012.87-.449c.392 0 .783.056 1.164.169.772.247 1.21.763 1.371 1.526.104.517.08 1.044-.058 1.55-.265 1.122-.553 2.233-.83 3.355-.045.202-.103.416-.15.618-.01.056-.034.1-.114.1-.646-.022-1.302-.022-1.994-.022zm-23.854-9.238l-.265 1.044c-.092.348-.173.685-.265 1.055h2.316c-.046.191-.092.36-.126.528-.081.337-.173.685-.254 1.021-.023.09-.058.113-.15.113h-2.04c-.15 0-.15 0-.184.145-.196.775-.38 1.55-.576 2.335a4.104 4.104 0 00-.104.64c-.046.438.185.74.634.82.369.056.749.044 1.106-.045.185-.034.358-.08.542-.146.011.09.023.168.034.247.047.404.081.796.127 1.2.012.057-.011.113-.069.135h-.011a5.9 5.9 0 01-2.536.315 2.71 2.71 0 01-.737-.169c-.6-.236-.945-.673-1.095-1.28-.07-.37-.07-.752-.012-1.122.07-.65.254-1.28.415-1.92l1.072-4.41c.046-.169.046-.18.219-.203l1.901-.28c0-.023.023-.023.058-.023zm6.891 7.442l.104.977c.011.18.035.359.058.538.011.068 0 .102-.07.124a5.419 5.419 0 01-2.927.247c-.875-.213-1.555-.674-1.913-1.504a3.38 3.38 0 01-.265-1.066 4.807 4.807 0 01.577-2.728c.633-1.134 1.613-1.807 2.904-2.054a4.772 4.772 0 012.685.247c.08.034.196.045.207.112.012.067-.046.146-.08.213-.185.416-.37.82-.565 1.235-.046.09-.023.123-.173.067a3.225 3.225 0 00-1.302-.235c-.934.033-1.648.538-1.948 1.392a3.156 3.156 0 00-.104 1.818c.035.123.081.236.139.348.15.28.438.471.772.516a3.378 3.378 0 001.498-.112c.138-.045.265-.09.403-.135zm-15.015 1.785c.057-.225.103-.438.161-.651l1.556-6.33c.011-.034.011-.057.023-.09 0-.057.035-.068.092-.068h1.993a.184.184 0 01-.01.135c-.566 2.29-1.142 4.59-1.706 6.88-.023.09-.046.124-.139.124H32.59a.13.13 0 01-.092 0zm23.935 0c.092-.36.172-.707.265-1.066.484-1.976.968-3.963 1.452-5.938.034-.124.034-.124.16-.124h1.822c.046-.01.092 0 .138.012-.07.28-.138.56-.207.841-.508 2.043-1.014 4.086-1.522 6.118 0 .022-.011.045-.011.056-.012.078-.046.112-.138.112H56.5a.21.21 0 01-.07-.011zm-19.418-9.373a1.439 1.439 0 01-1.21 1.359c-.311.056-.622 0-.887-.157-.369-.203-.507-.517-.473-.91a1.438 1.438 0 011.383-1.313 1.26 1.26 0 01.864.27c.22.179.346.46.323.752zm21.366.326c0-.629.518-1.212 1.197-1.325.277-.044.554-.01.807.102.519.213.61.673.565 1.01-.07.696-.657 1.223-1.36 1.268a1.25 1.25 0 01-.956-.348c-.208-.19-.265-.426-.254-.707z" fill="#fff"/><path d="M14.589 36.02a.62.62 0 00-.507-.214 2.574 2.574 0 01-.588-.011.778.778 0 01-.23-.068.497.497 0 00-.357-.033c-.047 0-.081.022-.104.067-.035.034-.07.023-.104.011-.034-.01-.034-.056-.023-.09a.578.578 0 01.242-.37c.161-.112.334-.224.507-.325a.752.752 0 01.795.033c.185.146.404.247.634.315l.058.01c.046-.033.011-.066.011-.1a1.748 1.748 0 00-.184-.393.304.304 0 00-.323-.157c-.184.033-.3-.068-.38-.213-.046-.079-.046-.191-.115-.225-.07-.034-.173.011-.265.023a.396.396 0 01-.254-.023c.012-.056.07-.078.115-.1a2.04 2.04 0 01.957-.27c.15 0 .3.045.415.134.196.146.391.303.576.472a.51.51 0 00.127.09l.023-.023a3.74 3.74 0 00-.024-1.077c-.022-.146-.022-.135-.172-.146-.357-.012-.726-.034-1.084-.045a8.79 8.79 0 01-1.071-.146 5.845 5.845 0 00-.622-.068c.011.158.103.281.138.427-.288.09-.565.09-.818-.09a1.799 1.799 0 01-.323-.337c-.115-.157-.23-.314-.346-.46a1.009 1.009 0 00-.484-.348c-.127-.045-.253-.1-.392-.157.035.202.196.348.15.561a.37.37 0 01-.219-.078 1.956 1.956 0 01-.45-.415c-.172-.202-.31-.427-.46-.651-.138-.225-.3-.438-.461-.652-.035-.033-.058-.09-.127-.112.023.124.035.236.058.348-.058.034-.08 0-.115-.011a.978.978 0 01-.45-.527 3.42 3.42 0 01-.184-.753c-.023-.134-.046-.269-.07-.392a1.649 1.649 0 00-.218-.573 1.103 1.103 0 01-.162-.572c0-.315.035-.618.093-.92.011-.113.023-.225.023-.337a.433.433 0 00-.07-.236.282.282 0 01-.034-.27 4.89 4.89 0 01.415-.942.799.799 0 01.368-.303 2.307 2.307 0 011.164-.169c.07 0 .104.034.081.101-.058.247 0 .494 0 .741a.72.72 0 01-.092.404 1.14 1.14 0 00-.127.427c-.011.056.012.1.058.123.08.056.173.101.265.146a.97.97 0 01.23.135.38.38 0 01.196.336.909.909 0 00.15.45c.057.1.15.179.265.201.242.057.472.169.657.337.092.09.207.146.322.18a.86.86 0 01.37.235c.184.214.437.247.69.214.173-.023.346-.079.485-.18.138-.078.265-.168.392-.258.034-.034.092-.045.126-.011l.023.022c.092.112.196.225.3.337.346.393.737.73 1.175 1.01.288.18.623.303.957.348a1.486 1.486 0 001.532-.82c.116-.269.196-.56.23-.852.035-.281.093-.55.162-.82.058-.247.173-.471.334-.662a.974.974 0 01.196-.18c.116-.09.116-.09.173.045.08.18.15.37.23.55.058.012.07-.022.093-.045.127-.146.242-.291.346-.437a.24.24 0 00.046-.247 6.462 6.462 0 01-.162-.82 1.345 1.345 0 01.127-.763c.092.079.173.18.242.28.023.023.035.057.058.08.057.055.103.055.15-.012.057-.09.115-.168.184-.258a.266.266 0 00.034-.314c-.092-.191-.16-.393-.242-.584a1.018 1.018 0 01-.057-.64.565.565 0 01.08-.19c.116.078.162.201.277.291.092-.146.161-.303.196-.471a.415.415 0 00-.104-.326 1.452 1.452 0 01-.31-.909c0-.034-.024-.09.022-.112.046-.023.092.011.127.045.07.045.07.134.115.202.162-.146.23-.382.162-.584a1.05 1.05 0 00-.139-.247 5.461 5.461 0 01-.23-.314 1.09 1.09 0 01-.185-.797c.058 0 .081.056.127.067a.189.189 0 00.184-.034c.058-.044.012-.1-.011-.134-.08-.157-.161-.303-.242-.45a2.557 2.557 0 01-.23-.47.82.82 0 01-.012-.55c.07 0 .104.056.15.09.288.257.564.527.876.774.034.022.057.045.092.067.23.213.53.337.841.36.45.044.876.168 1.268.38.069.035.15.068.253.102-.08-.213-.15-.415-.23-.606a.283.283 0 01.046-.348c.092-.112.184-.225.288-.326.023-.033.069-.067.115-.067.08.157.161.337.242.494.08.157.058.348.104.527.034-.09.046-.168.034-.258 0-.27.07-.348.335-.415.126-.034.253-.045.38-.056.104 0 .115 0 .127.112a1.29 1.29 0 01-.081.505c-.023.056-.035.112-.07.202.22-.078.404-.168.612-.123.195.056.38.168.518.314-.115.101-.242.18-.392.236-.08.033-.161.056-.242.078-.196.068-.369.18-.507.337.058.09.162.146.265.146.288.045.553.202.726.438.046.067.093.134.116.202.023.056.023.078-.047.112a.725.725 0 01-.645 0l-.253-.135a1.393 1.393 0 00-.703-.146c-.07 0-.104.034-.104.101 0 .09-.023.18-.035.281 0 .135-.034.27.081.382.046.045.012.09-.07.09a.633.633 0 01-.714-.528v-.079a1.032 1.032 0 01.012-.325c.011-.056.011-.124.011-.18l-.587.068a.699.699 0 00.069.202c.219.505.45 1.01.622 1.537a6.1 6.1 0 01.323 1.819 7.997 7.997 0 01-.634 3.39 7.39 7.39 0 01-2.408 2.985 9.89 9.89 0 01-1.084.707c-.08.045-.161.101-.242.146a.448.448 0 00-.242.427c.012.168 0 .337-.046.494-.08.247-.219.471-.403.65-.046-.022-.07-.067-.104-.111a1.767 1.767 0 00-.15-.169c-.057-.067-.15-.067-.219-.011-.023.011-.034.034-.046.056a.595.595 0 00-.069.348c.035.27-.092.46-.288.629-.104-.09-.161-.225-.265-.337-.15.168-.288.325-.426.482.011.057.057.057.092.057.15.022.3.033.46.056a.607.607 0 01.427.291c.173.27.277.584.323.899a.675.675 0 01-.08.392c-.081-.022-.116-.09-.15-.146a.896.896 0 00-.185-.224.37.37 0 00-.323-.09.686.686 0 01-.564-.135.472.472 0 00-.104-.056c-.138.202-.334.382-.484.584a1.174 1.174 0 00-.219.774c0 .113.012.225.023.337a.628.628 0 01-.15.45 2.203 2.203 0 00-.276.414c-.058.012-.08-.022-.115-.056a1.683 1.683 0 01-.473-.83.518.518 0 01.092-.427c.035-.067.092-.123.127-.19a.69.69 0 00.104-.517c-.046-.022-.081.011-.116.023-.3.1-.599.19-.887.314a.37.37 0 00-.242.258.558.558 0 01-.392.37l-.092.023a.103.103 0 00-.08.123v.012c.023.134.046.269.069.415a1.133 1.133 0 01-.507-.685.788.788 0 01.207-.684c.184-.191.403-.348.645-.45.196-.145.38-.202.565-.258z" fill="#E9B201"/><path d="M9.588 18.857c0-.011-.012-.022-.012-.022.15-.236.346-.416.669-.416.265.012.518 0 .783-.022.185-.022.357-.067.542-.123-.046-.113-.162-.18-.288-.191-.046 0-.07-.012-.092-.045-.024-.034.011-.068.046-.09a1 1 0 01.772-.224c.173.033.345.078.507.134a.532.532 0 00.415 0c.092-.034.196-.045.3-.034-.081-.1-.104-.224-.266-.213-.023 0-.034-.011-.057-.022-.081-.045-.081-.079 0-.124a1.08 1.08 0 011.279.113c.23.213.426.247.76.168a.513.513 0 00-.403-.337.903.903 0 011.014-.056c.115.079.219.168.334.247.22.157.496.236.772.213a.541.541 0 00-.196-.258c-.08-.056-.195-.078-.276-.18a.993.993 0 01.818.09c.127.079.242.157.346.259.092.078.196.157.3.224.103-.079.045-.146.01-.224-.034-.08-.045-.146-.068-.225a.23.23 0 01.173 0c.426.135.818.37 1.129.696.104.123.184.27.23.415.116.337.196.685.254 1.044.034.135.058.28.069.427 0 .067 0 .134-.012.202-.046.269-.023.538.081.785.046.146.115.281.162.427a.544.544 0 010 .381 1.455 1.455 0 000 .988c0 .011 0 .023.011.034.092.18.023.314-.115.438a.441.441 0 00-.139.258 1.876 1.876 0 00-.046.505.515.515 0 01-.092.36.938.938 0 01-.104-.248c-.08-.235-.15-.46-.218-.696a2.78 2.78 0 00-.415-.797 6.385 6.385 0 01-.3-.46.467.467 0 01-.046-.393.8.8 0 00.011-.404 2.771 2.771 0 00-.449-1.111 1.05 1.05 0 00-.369-.337c-.31-.168-.587-.067-.726.247-.08.236-.092.483-.034.719.011.078.034.146.046.235a1.24 1.24 0 01-.346-.056 4.94 4.94 0 00-.553-.135 3.817 3.817 0 00-2.259.326c-.334.168-.656.36-.956.584-.127.1-.265.19-.403.28a.569.569 0 01-.358.09c-.173-.022-.345-.022-.518-.045-.53-.056-1.037.034-1.544.135-.484.1-.957.213-1.452.28a2.81 2.81 0 01-1.06-.01c-.289-.08-.289-.08-.196-.36l.172-.516c.046-.146.081-.169-.103-.213-.012 0-.035-.012-.046-.012-.07-.022-.116-.1-.081-.168 0-.011.011-.011.011-.023a.815.815 0 01.565-.538 1.18 1.18 0 01.22-.056 1.27 1.27 0 00.714-.54c.057-.089.046-.1-.058-.1-.07-.012-.15-.012-.219-.012-.07 0-.092-.044-.07-.1a.75.75 0 01.404-.45c.185-.078.392-.123.6-.145h.045a.747.747 0 00.542-.191c.058-.045.115-.09.184-.124.024-.022.058-.033.047-.067-.012-.034-.024-.067-.058-.067-.092.01-.173-.057-.265-.045-.046-.068-.058-.068-.07-.079z" fill="#E9B201"/><path d="M14.531 28.622a.925.925 0 01.346.135 8.8 8.8 0 01.53.348 1.5 1.5 0 00.496.213c.103.023.219.023.334.012a.544.544 0 00.495-.595.322.322 0 00-.023-.101 1.377 1.377 0 00-.334-.606 4.528 4.528 0 00-.484-.45c-.242-.201-.495-.392-.714-.617a3.434 3.434 0 01-.703-.965c-.046-.101-.058-.101-.162-.067-.103.033-.242.067-.368.1a1.587 1.587 0 00-.519.192c-.046-.068-.092-.135-.127-.203a.281.281 0 00-.345-.157c-.046.011-.092.011-.15.023.011.18.092.348.242.449.184.123.403.213.622.258a.194.194 0 00.184-.068.752.752 0 01.208-.168c.046-.034.104-.022.15.011.253.259.484.528.564.887.07.27-.046.55-.3.674a.995.995 0 01-.403.123c.024-.123.116-.213.127-.337a.763.763 0 00-.057-.359c-.242.101-.473.213-.611.438-.035.056-.058.112-.092.168a.88.88 0 01-.795.46.665.665 0 01-.323-.09c-.185-.09-.357-.213-.576-.269-.046-.01-.058-.056-.07-.09-.011-.078-.034-.157-.046-.247a.6.6 0 00-.069-.201.213.213 0 00-.265-.135.843.843 0 00-.23.1c-.046.023-.092.068-.15.08-.161-.27-.035-.483.161-.685-.173-.045-.31-.068-.45-.113a1.18 1.18 0 01-.345-.145c-.057-.023-.092-.09-.069-.146a1.02 1.02 0 01.83-.73c.276-.045.564-.034.841.011a.548.548 0 00.196.011 1.047 1.047 0 00-.726-.336c-.196 0-.392.011-.588.045-.15.022-.311.033-.46.01a.52.52 0 01.149-.224c.15-.145.311-.269.484-.37.092-.056.184-.123.265-.202a.49.49 0 00-.23-.112 2.329 2.329 0 00-.404-.068 9.657 9.657 0 00-1.51.079c-.426.045-.852.123-1.278.146a4.72 4.72 0 01-1.856-.28 2.444 2.444 0 01-.668-.382.95.95 0 01-.277-.393.505.505 0 01.288.011c.208.045.415.112.623.202a3.589 3.589 0 002.005.146c.541-.101 1.06-.27 1.59-.404a4.17 4.17 0 011.394-.168c.162.01.335 0 .496-.034a.996.996 0 00.415-.191.899.899 0 00-.438-.157 3.547 3.547 0 00-1.141.045c-.553.09-1.083.247-1.625.37a4.307 4.307 0 01-2.2-.078 1.363 1.363 0 01-.496-.247.48.48 0 01-.196-.404c0-.09.011-.101.103-.079.139.034.265.09.38.157.277.146.577.247.877.314.449.09.91.101 1.36.034.53-.067 1.036-.202 1.555-.314.3-.068.61-.113.922-.135.357-.022.726.011 1.072.101.253.056.53.045.772-.045.38-.134.31-.123.518.169.115.18.208.37.265.572.023.079.058.157.093.224.034.09.138.135.23.124.023 0 .058 0 .08-.011a6.91 6.91 0 01.934-.191.64.64 0 00.53-.449c.035-.101.07-.202.092-.292.023-.09.058-.18.104-.258a.798.798 0 01.53-.46c.138-.045.277-.068.415-.101.277-.068.53-.191.75-.37.08-.057.114-.158.08-.236a5.107 5.107 0 01-.127-.45c-.023-.09-.046-.168-.07-.258a.34.34 0 01.058-.314c.07.023.104.079.15.135.185.258.288.55.323.864.011.079.011.168.023.247a.244.244 0 01-.15.292c-.173.09-.334.168-.518.236a3.57 3.57 0 00-.565.247.535.535 0 00-.311.449c0 .145.115.258.253.269a.74.74 0 01.461.135c.08.067.185.123.277.168.115.056.253.09.38.09.058 0 .115-.011.161.045-.115.067-.242.123-.368.18-.15.078-.162.033-.127.224.011.067.023.146.011.213-.011.09-.046.112-.138.079a.639.639 0 00-.288-.068c-.058-.01-.127.034-.138.09v.022c-.023.102-.046.214-.07.315-.01.056-.034.067-.092.045-.092-.034-.184-.056-.276-.09-.023-.011-.07-.011-.08.022 0 0 0 .012-.012.023a1.574 1.574 0 01-.093.202.149.149 0 01-.184.1c-.023 0-.035-.01-.058-.022-.115-.067-.126-.067-.15.068a.791.791 0 01-.241.449.55.55 0 01-.162-.202c-.023-.023-.034-.056-.069-.056-.034 0-.034.045-.046.067a1.08 1.08 0 00.035.471c.069.225.172.438.334.618.184.213.38.415.588.606.265.236.507.483.737.74.242.27.403.584.473.932a1.4 1.4 0 01.011.438.672.672 0 01-.472.55 1.55 1.55 0 01-.784.034 2.643 2.643 0 01-1.106-.45 1.08 1.08 0 01-.334-.347.506.506 0 01-.07-.315zm-2.27-3.648a.938.938 0 00.553.068c.3-.045.473-.236.473-.494 0-.022 0-.056-.012-.079a.288.288 0 00-.357-.056 2 2 0 01-.472.337.39.39 0 00-.185.224zm3.18-.976a.59.59 0 00.208.101.717.717 0 00.784-.112c.08-.056.08-.068 0-.135a.437.437 0 00-.404-.079 1.633 1.633 0 00-.587.225z" fill="#E9B201"/><path d="M4.621 31.384c.161.022.334.022.496.022a.82.82 0 00.668-.359c-.115 0-.242.011-.357.045-.162.034-.323.079-.496.112a.787.787 0 01-.53-.056c-.45-.247-.772-.595-.864-1.111-.058-.326.057-.618.207-.932.035.079.07.124.092.18.093.213.22.426.37.617.195.258.495.404.829.404.161 0 .323-.011.472-.056.496-.123.75-.471.888-.92 0-.012 0-.012-.012-.023-.057.023-.069.079-.104.112-.334.36-.749.562-1.256.505a.803.803 0 01-.691-.493 1.38 1.38 0 01-.092-.685c0-.067.034-.09.103-.079a.843.843 0 01.289.079c.357.202.703.123 1.037-.067.345-.18.564-.528.576-.91.023-.325.034-.65.011-.976-.034-.427 0-.853.081-1.257.092-.37.08-.37.473-.348.184.011.357.022.541.022.08 0 .092.023.08.101a5.328 5.328 0 01-.184.707 6.079 6.079 0 00-.276 1.706c-.023.607 0 1.213.011 1.808a4.3 4.3 0 01-.08 1.088c-.092.438-.38.797-.784.988a2.005 2.005 0 01-.68.225c-.369.056-.634-.079-.818-.45zm12.734-5.287c0 .146.057.292.069.438 0 .044.069.123 0 .145a.198.198 0 01-.22-.033.74.74 0 00-.149-.112.161.161 0 00-.207.01l-.185.147a.324.324 0 01-.426-.012.923.923 0 01-.207-.213 3.07 3.07 0 01-.335-.516.35.35 0 01.185.011c.138.023.276 0 .403-.067s.138-.101.08-.225c-.045-.09-.08-.18-.126-.269-.023-.045-.012-.079.046-.09a.429.429 0 01.311.023c.023.01.035.01.058.022.196.056.207.045.242-.146a1.18 1.18 0 01.08-.348c.242.146.519.191.773.326.046.022.103.056.15.09.138.1.126.1.034.246a.473.473 0 00-.08.281c.01.303.034.258-.266.27-.057 0-.115.01-.173.01-.034-.01-.046 0-.057.012z" fill="#E9B201"/><path d="M4.978 28.533a.492.492 0 01-.415-.214.086.086 0 010-.123.088.088 0 01.046-.023c.058-.01.116-.01.173-.022.116-.011.116-.011.127-.123v-.236c-.011-.045.023-.09.08-.101l.243-.067a.445.445 0 01.495.224c.07.112.127.236.173.348.023.045.023.09-.034.09-.242.045-.473.146-.715.202a.437.437 0 01-.173.045zm4.632-9.642c-.011.011 0 .046-.023.046-.034 0-.057-.035-.057-.057 0-.012.034-.023.046-.012.011.012.023.023.034.023z" fill="#E9B201"/></svg>