<svg width="90" height="55" viewBox="0 0 90 55" fill="none" xmlns="http://www.w3.org/2000/svg">
<path d="M80.0436 30.5194C80.0782 30.5082 80.1012 30.4745 80.1243 30.4408C81.3112 28.4765 82.452 26.4898 83.5007 24.4582C83.6275 24.2225 83.7427 23.9755 83.8579 23.7286C83.8925 23.6725 83.9156 23.6276 83.9962 23.6276C84.7222 23.6276 85.4482 23.6276 86.1742 23.6276C86.1857 23.6276 86.1973 23.6388 86.1973 23.6388C86.2088 23.6837 86.1742 23.7061 86.1627 23.7398C84.5378 26.7367 82.8323 29.6776 80.8964 32.4949C80.7926 32.6521 80.6774 32.8092 80.5737 32.9776C80.5391 33.0337 80.47 33.0674 80.4008 33.0674C79.7901 33.0674 79.1908 33.0674 78.5801 33.0674C78.4649 33.0674 78.4649 33.0674 78.4418 32.9551C78.2344 31.8327 78.0385 30.7102 77.8656 29.5878C77.7389 28.7572 77.6121 27.9378 77.4969 27.1072C77.4162 26.4786 77.3355 25.85 77.2664 25.2214C77.2088 24.7612 77.1627 24.3123 77.1166 23.8521C77.0935 23.6276 77.082 23.6612 77.301 23.6612C77.9578 23.6612 78.6031 23.6612 79.26 23.6612C79.2946 23.6612 79.3407 23.6612 79.3752 23.6612C79.4328 23.6612 79.4444 23.6837 79.4559 23.7398C79.4559 23.8296 79.4674 23.9194 79.4674 24.0204C79.502 24.9184 79.5827 25.8276 79.6633 26.7255C79.7209 27.4551 79.7901 28.1847 79.8707 28.9143C79.9168 29.4194 79.9745 29.9694 80.0436 30.5194Z" fill="#D82A3C"/>
<path d="M75.2152 25.7715C74.881 25.547 74.5237 25.3786 74.1319 25.2664C73.6018 25.1204 73.0487 25.1204 72.5186 25.2439C72.3227 25.2888 72.1383 25.3898 71.9885 25.5133C71.5852 25.8164 71.5506 26.5235 71.9309 26.9051C72.0922 27.0623 72.2881 27.197 72.5071 27.2868C73.0718 27.5225 73.6018 27.8255 74.0974 28.1847C74.4085 28.4092 74.662 28.7011 74.8464 29.0378C74.9847 29.2847 75.0769 29.5653 75.1114 29.846C75.1691 30.3847 75.0999 30.9347 74.8925 31.4398C74.7196 31.8439 74.4431 32.1919 74.0858 32.45C73.6134 32.7868 73.0717 33.0113 72.4956 33.1123C71.7926 33.247 71.0782 33.2806 70.3752 33.2021C69.6953 33.1347 69.0385 32.9551 68.4277 32.6745C68.2779 32.6072 68.1396 32.5062 67.9898 32.4276C67.9322 32.3939 67.9207 32.3715 67.9552 32.3041C68.2318 31.8215 68.5084 31.3388 68.7849 30.8562C68.8195 30.7888 68.8656 30.7776 68.9348 30.8225C69.1076 30.9347 69.3035 31.0358 69.4879 31.1143C69.8797 31.2827 70.2945 31.4062 70.7209 31.4511C71.2741 31.5072 71.8157 31.496 72.3227 31.2602C72.8067 31.0358 72.9796 30.5643 72.8528 30.0929C72.8182 29.9806 72.7606 29.8796 72.6799 29.8011C72.438 29.5541 72.1499 29.3521 71.8157 29.2286C71.3778 29.0266 70.9514 28.7796 70.5596 28.499C70.0641 28.1511 69.6723 27.7021 69.5225 27.1072C69.3035 26.2429 69.4187 25.4123 69.9834 24.6827C70.3291 24.2449 70.8131 23.9082 71.3547 23.7398C72.9335 23.2123 74.4661 23.347 75.9411 24.1102C76.1371 24.2113 76.1371 24.2225 76.0333 24.4021C75.7913 24.8174 75.5493 25.2439 75.3073 25.6592C75.2728 25.6817 75.2497 25.7153 75.2152 25.7715Z" fill="#D82A3C"/>
<path d="M29.0397 22.5164C28.7516 23.6837 28.4751 24.8286 28.187 25.9959C28.3253 25.9511 28.429 25.9062 28.5327 25.8725C29.0974 25.6929 29.7081 25.7041 30.2728 25.8949C30.9988 26.1306 31.5519 26.7031 31.7478 27.4215C32.3931 29.4868 31.356 31.8102 29.3854 32.7755C28.7862 33.0674 28.1409 33.2245 27.4725 33.2357C26.6428 33.2694 25.8131 33.1572 25.0064 32.9327C24.8451 32.8878 24.6953 32.8204 24.5455 32.7643C24.4764 32.7306 24.4533 32.697 24.4764 32.6184C24.6377 31.9786 24.7875 31.35 24.9488 30.7102C25.4674 28.6 25.986 26.5011 26.493 24.3908C26.6082 23.9082 26.735 23.4255 26.8502 22.9429C26.8618 22.8643 26.9194 22.8082 27 22.8082C27.5877 22.7184 28.187 22.6286 28.7747 22.5388C28.8554 22.5276 28.9475 22.5164 29.0397 22.5164ZM26.8387 31.5072C27.1614 31.5745 27.484 31.597 27.8067 31.5521C28.3829 31.4511 28.8899 31.1368 29.2241 30.6878C29.5813 30.2276 29.8118 29.6664 29.8579 29.0939C29.904 28.7011 29.8579 28.3082 29.7081 27.9378C29.6274 27.7357 29.4661 27.5786 29.2472 27.5225C28.7862 27.3878 28.2792 27.4551 27.8758 27.7133C27.7837 27.7694 27.726 27.8592 27.703 27.9602C27.4725 28.948 27.219 29.9245 26.9885 30.9123C26.9424 31.0919 26.8848 31.3051 26.8387 31.5072Z" fill="white"/>
<path d="M48.8374 30.1939C48.849 29.1051 49.2293 28.0388 49.9322 27.1857C50.4623 26.5123 51.1998 26.0296 52.0411 25.8164C52.6749 25.6592 53.3432 25.6592 53.977 25.8388C54.8298 26.0745 55.3829 26.6133 55.671 27.4215C55.8669 28.0051 55.9361 28.6337 55.8439 29.2398C55.7747 29.8796 55.5788 30.497 55.2907 31.0694C54.9566 31.7204 54.4495 32.2817 53.8157 32.6857C53.4009 32.9551 52.9399 33.1235 52.4444 33.1908C51.9258 33.2806 51.3957 33.2694 50.8772 33.1572C49.84 32.9214 49.2177 32.2704 48.9527 31.2827C48.872 30.9235 48.8259 30.5643 48.8374 30.1939ZM53.8157 28.8582C53.8157 28.7347 53.8042 28.6337 53.8042 28.5215C53.7811 28.297 53.7235 28.0725 53.6313 27.8704C53.5507 27.6796 53.3778 27.5337 53.1589 27.4888C52.744 27.3653 52.283 27.4551 51.9489 27.7245C51.6723 27.9378 51.4533 28.1959 51.3035 28.499C51.0039 29.0827 50.8772 29.7225 50.9117 30.3735C50.9232 30.6429 50.9924 30.9123 51.1307 31.1592C51.2229 31.3388 51.3957 31.4623 51.5916 31.5072C51.9834 31.6082 52.3983 31.5296 52.721 31.3051C53.0206 31.0919 53.251 30.8112 53.4124 30.4857C53.6659 29.9694 53.8042 29.4194 53.8157 28.8582Z" fill="white"/>
<path d="M64.4751 33.0562L64.671 32.2592C64.936 31.1817 65.2011 30.0929 65.4661 29.0041C65.5468 28.7235 65.5698 28.4204 65.5468 28.1286C65.5352 27.7807 65.2587 27.4888 64.8899 27.4664C64.5557 27.4215 64.2215 27.4776 63.8874 27.5113C63.8067 27.5225 63.7952 27.5786 63.7836 27.6347C63.6915 28.0276 63.5877 28.4317 63.4956 28.8245C63.1614 30.1939 62.8272 31.5633 62.493 32.9327C62.4584 33.0562 62.4584 33.0562 62.3317 33.0562H60.4994C60.4648 33.0562 60.4187 33.0562 60.3842 33.0449C60.4648 32.7306 60.5455 32.4051 60.6261 32.0908C61.0986 30.2051 61.5711 28.3082 62.0436 26.4225C62.0551 26.4 62.0551 26.3776 62.0551 26.3664C62.0666 26.2653 62.1242 26.2317 62.2164 26.2092C63.1383 25.8949 64.1178 25.749 65.0858 25.7602C65.4776 25.7602 65.8694 25.8164 66.2497 25.9286C67.0218 26.1755 67.4597 26.6919 67.621 27.4551C67.7247 27.9715 67.7017 28.499 67.5634 29.0041C67.2984 30.1266 67.0103 31.2378 66.7337 32.3602C66.6876 32.5623 66.63 32.7755 66.5839 32.9776C66.5724 33.0337 66.5493 33.0786 66.4687 33.0786C65.8233 33.0562 65.1665 33.0562 64.4751 33.0562Z" fill="white"/>
<path d="M40.6211 23.8184L40.356 24.8622C40.2638 25.2102 40.1832 25.5469 40.091 25.9173H42.4072C42.3611 26.1082 42.3151 26.2765 42.2805 26.4449C42.1998 26.7816 42.1076 27.1296 42.027 27.4663C42.0039 27.5561 41.9693 27.5786 41.8772 27.5786C41.1973 27.5786 40.5174 27.5786 39.8375 27.5786C39.6877 27.5786 39.6877 27.5786 39.6531 27.7245C39.4572 28.499 39.2728 29.2735 39.0769 30.0592C39.0308 30.2724 38.9847 30.4857 38.9732 30.699C38.9271 31.1367 39.1576 31.4398 39.607 31.5184C39.9757 31.5745 40.356 31.5633 40.7133 31.4735C40.8976 31.4398 41.0705 31.3949 41.2549 31.3275C41.2664 31.4173 41.2779 31.4959 41.2894 31.5745C41.3355 31.9786 41.3701 32.3714 41.4162 32.7755C41.4277 32.8316 41.4047 32.8877 41.3471 32.9102H41.3355C40.5289 33.202 39.6531 33.303 38.8003 33.2245C38.5468 33.202 38.2933 33.1459 38.0628 33.0561C37.4636 32.8204 37.1179 32.3826 36.9681 31.7765C36.8989 31.4061 36.8989 31.0245 36.9565 30.6541C37.0257 30.0031 37.2101 29.3745 37.3714 28.7347C37.7286 27.2643 38.0859 25.7939 38.4431 24.3235C38.4892 24.1551 38.4892 24.1439 38.662 24.1214L40.5635 23.8408C40.5635 23.8184 40.5865 23.8184 40.6211 23.8184Z" fill="white"/>
<path d="M47.5122 31.2602C47.5468 31.5857 47.5814 31.9113 47.616 32.2368C47.6275 32.4164 47.6505 32.5959 47.6736 32.7755C47.6851 32.8429 47.6736 32.8766 47.6044 32.899C46.671 33.247 45.6569 33.3368 44.6774 33.1459C43.8016 32.9327 43.1217 32.4725 42.7645 31.6419C42.6147 31.3051 42.534 30.9459 42.4994 30.5755C42.4188 29.6327 42.6147 28.6898 43.0756 27.848C43.7094 26.7143 44.6889 26.0408 45.9796 25.7939C46.8784 25.6143 47.8119 25.7041 48.6646 26.0408C48.7453 26.0745 48.8605 26.0857 48.872 26.1531C48.8836 26.2204 48.8259 26.299 48.7914 26.3663C48.607 26.7816 48.4226 27.1857 48.2267 27.601C48.1806 27.6908 48.2037 27.7245 48.0539 27.6684C47.639 27.5 47.2011 27.4214 46.7517 27.4327C45.8183 27.4663 45.1038 27.9714 44.8042 28.8245C44.5967 29.4082 44.5507 30.0368 44.7005 30.6429C44.735 30.7664 44.7811 30.8786 44.8387 30.9908C44.9886 31.2715 45.2766 31.4623 45.6108 31.5072C46.1179 31.5857 46.6249 31.5408 47.1089 31.3949C47.2472 31.35 47.374 31.3051 47.5122 31.2602Z" fill="white"/>
<path d="M32.4968 33.0449C32.5544 32.8204 32.6005 32.6072 32.6582 32.3939C33.1767 30.2837 33.6953 28.1735 34.2139 26.0633C34.2254 26.0296 34.2254 26.0071 34.2369 25.9735C34.2369 25.9174 34.2715 25.9061 34.3291 25.9061C34.3406 25.9061 34.3637 25.9061 34.3752 25.9061H36.242H36.3227C36.3342 25.951 36.3342 25.9959 36.3112 26.0408C35.7465 28.3306 35.1703 30.6316 34.6057 32.9214C34.5826 33.0112 34.5596 33.0449 34.4674 33.0449C33.8451 33.0449 33.2113 33.0449 32.589 33.0449C32.5544 33.0561 32.5314 33.0561 32.4968 33.0449Z" fill="white"/>
<path d="M56.4316 33.0449C56.5238 32.6857 56.6044 32.3378 56.6966 31.9786C57.1806 30.0031 57.6646 28.0164 58.1486 26.0408C58.1832 25.9174 58.1832 25.9174 58.3099 25.9174H60.1307C60.1768 25.9061 60.2229 25.9174 60.269 25.9286C60.1998 26.2092 60.1307 26.4898 60.0615 26.7704C59.5545 28.8133 59.0475 30.8561 58.5404 32.8878C58.5404 32.9102 58.5289 32.9327 58.5289 32.9439C58.5174 33.0225 58.4828 33.0562 58.3906 33.0562C57.7568 33.0562 57.123 33.0562 56.5007 33.0562C56.4892 33.0562 56.4662 33.0561 56.4316 33.0449Z" fill="white"/>
<path d="M37.0141 23.6725C36.9911 24.3459 36.484 24.9184 35.8041 25.0306C35.493 25.0868 35.1819 25.0306 34.9168 24.8735C34.5481 24.6714 34.4098 24.3572 34.4443 23.9643C34.502 23.2459 35.0897 22.6847 35.8272 22.651C36.1383 22.6286 36.4494 22.7296 36.6914 22.9204C36.9104 23.1 37.0372 23.3806 37.0141 23.6725Z" fill="white"/>
<path d="M58.3791 23.998C58.3791 23.3695 58.8976 22.7858 59.5775 22.6735C59.8541 22.6286 60.1307 22.6623 60.3842 22.7746C60.9027 22.9878 60.9949 23.448 60.9488 23.7848C60.8797 24.4807 60.292 25.0082 59.589 25.0531C59.2318 25.0756 58.8861 24.9521 58.6326 24.7052C58.4252 24.5144 58.3676 24.2786 58.3791 23.998Z" fill="white"/>
<path d="M14.589 36.0193C14.4622 35.8734 14.2778 35.7948 14.0819 35.8061C13.886 35.8285 13.6901 35.8173 13.4942 35.7948C13.4136 35.7836 13.3329 35.7612 13.2638 35.7275C13.1485 35.6714 13.0218 35.6602 12.9065 35.6938C12.8604 35.6938 12.8259 35.7163 12.8028 35.7612C12.7682 35.7948 12.7337 35.7836 12.6991 35.7724C12.6645 35.7612 12.6645 35.7163 12.676 35.6826C12.6991 35.5367 12.7913 35.402 12.918 35.3122C13.0794 35.1999 13.2522 35.0877 13.4251 34.9867C13.6786 34.8408 13.9897 34.8632 14.2202 35.0204C14.4046 35.1663 14.6236 35.2673 14.854 35.3346L14.9116 35.3459C14.9577 35.3122 14.9232 35.2785 14.9232 35.2448C14.8771 35.1102 14.8195 34.9755 14.7388 34.852C14.6812 34.7397 14.5544 34.6724 14.4161 34.6948C14.2317 34.7285 14.1165 34.6275 14.0358 34.4816C13.9897 34.403 13.9897 34.2908 13.9206 34.2571C13.8515 34.2234 13.7478 34.2683 13.6556 34.2795C13.5749 34.302 13.4827 34.2908 13.402 34.2571C13.4136 34.201 13.4712 34.1785 13.5173 34.1561C13.8054 33.9877 14.1396 33.8979 14.4737 33.8867C14.6236 33.8867 14.7734 33.9316 14.8886 34.0214C15.0845 34.1673 15.2804 34.3244 15.4648 34.4928C15.4994 34.5265 15.5454 34.5602 15.5915 34.5826C15.6031 34.5714 15.6146 34.5602 15.6146 34.5602C15.6607 34.201 15.6492 33.8418 15.5915 33.4826C15.5685 33.3367 15.5685 33.3479 15.4187 33.3367C15.0615 33.3255 14.6927 33.303 14.3355 33.2918C13.9782 33.2693 13.621 33.2132 13.2638 33.1459C13.0563 33.1122 12.8489 33.0897 12.6415 33.0785C12.653 33.2357 12.7452 33.3591 12.7798 33.5051C12.4917 33.5948 12.2151 33.5948 11.9616 33.4153C11.8348 33.3142 11.7311 33.202 11.6389 33.0785C11.5237 32.9214 11.4084 32.7642 11.2932 32.6183C11.178 32.4612 11.0051 32.3377 10.8092 32.2704C10.6825 32.2255 10.5557 32.1693 10.4174 32.1132C10.452 32.3153 10.6133 32.4612 10.5672 32.6744C10.4865 32.6744 10.4059 32.6408 10.3483 32.5959C10.1754 32.4836 10.0256 32.3377 9.89884 32.1806C9.72598 31.9785 9.5877 31.754 9.43789 31.5295C9.29961 31.305 9.13828 31.0918 8.97694 30.8785C8.94237 30.8448 8.91933 30.7887 8.85018 30.7663C8.87323 30.8897 8.88476 31.002 8.9078 31.1142C8.85018 31.1479 8.82714 31.1142 8.79257 31.103C8.58514 30.9908 8.42381 30.7999 8.34314 30.5755C8.25095 30.3285 8.19333 30.0816 8.15876 29.8234C8.13572 29.6887 8.11267 29.554 8.08962 29.4306C8.05505 29.2285 7.97438 29.0265 7.87067 28.8581C7.76696 28.6897 7.70934 28.4877 7.70934 28.2857C7.70934 27.9714 7.74391 27.6683 7.80153 27.3653C7.81305 27.253 7.82458 27.1408 7.82458 27.0285C7.82458 26.9499 7.80153 26.8602 7.75543 26.7928C7.69782 26.7142 7.68629 26.6132 7.72086 26.5234C7.82458 26.1979 7.96286 25.8836 8.13571 25.5806C8.2279 25.4459 8.35467 25.3336 8.50447 25.2775C8.87323 25.1204 9.27656 25.0642 9.66837 25.1091C9.73751 25.1091 9.77208 25.1428 9.74903 25.2102C9.69141 25.4571 9.74903 25.704 9.74903 25.951C9.76056 26.0857 9.72598 26.2316 9.65684 26.3551C9.5877 26.4897 9.5416 26.6357 9.53008 26.7816C9.51856 26.8377 9.5416 26.8826 9.5877 26.9051C9.66837 26.9612 9.76056 27.0061 9.85274 27.051C9.93341 27.0846 10.0141 27.1295 10.0832 27.1857C10.21 27.253 10.2791 27.3877 10.2791 27.5224C10.2906 27.6795 10.3367 27.8367 10.4289 27.9714C10.4865 28.0724 10.5787 28.151 10.694 28.1734C10.936 28.2295 11.1664 28.3418 11.3508 28.5102C11.443 28.5999 11.5583 28.6561 11.6735 28.6897C11.8118 28.7346 11.9385 28.8132 12.0422 28.9255C12.2266 29.1387 12.4801 29.1724 12.7337 29.1387C12.9065 29.1163 13.0794 29.0602 13.2177 28.9591C13.3559 28.8806 13.4827 28.7908 13.6095 28.701C13.644 28.6673 13.7017 28.6561 13.7362 28.6897C13.7478 28.701 13.7478 28.701 13.7593 28.7122C13.8515 28.8244 13.9552 28.9367 14.0589 29.0489C14.4046 29.4418 14.7964 29.7785 15.2343 30.0591C15.5224 30.2387 15.8566 30.3622 16.1908 30.4071C16.8361 30.4857 17.4469 30.1602 17.7234 29.5877C17.8387 29.3183 17.9193 29.0265 17.9539 28.7346C17.9885 28.454 18.0461 28.1846 18.1152 27.9153C18.1728 27.6683 18.2881 27.4438 18.4494 27.253C18.507 27.1857 18.5762 27.1183 18.6453 27.0734C18.7606 26.9836 18.7606 26.9836 18.8182 27.1183C18.8988 27.2979 18.968 27.4887 19.0486 27.6683C19.1063 27.6795 19.1178 27.6459 19.1408 27.6234C19.2676 27.4775 19.3828 27.3316 19.4865 27.1857C19.5442 27.1183 19.5672 27.0285 19.5326 26.9387C19.4635 26.6693 19.4059 26.3999 19.3713 26.1193C19.3367 25.8612 19.3828 25.5918 19.4981 25.3561C19.5903 25.4346 19.6709 25.5357 19.7401 25.6367C19.7631 25.6591 19.7746 25.6928 19.7977 25.7153C19.8553 25.7714 19.9014 25.7714 19.9475 25.704C20.0051 25.6142 20.0627 25.5357 20.1319 25.4459C20.2125 25.3561 20.2241 25.2326 20.1664 25.1316C20.0743 24.9408 20.0051 24.7387 19.9244 24.5479C19.8323 24.3459 19.8207 24.1214 19.8668 23.9081C19.8784 23.8408 19.9129 23.7734 19.9475 23.7173C20.0627 23.7959 20.1088 23.9193 20.2241 24.0091C20.3163 23.8632 20.3854 23.7061 20.42 23.5377C20.4315 23.4142 20.3969 23.302 20.3163 23.2122C20.1088 22.954 20.0051 22.6285 20.0051 22.303C20.0051 22.2693 19.9821 22.2132 20.0282 22.1908C20.0743 22.1683 20.1204 22.202 20.1549 22.2357C20.2241 22.2806 20.2241 22.3704 20.2702 22.4377C20.4315 22.2918 20.5006 22.0561 20.4315 21.854C20.3969 21.7642 20.3508 21.6857 20.2932 21.6071C20.2125 21.5061 20.1319 21.3938 20.0627 21.2928C19.9014 21.0571 19.8323 20.7765 19.8784 20.4959C19.936 20.4959 19.959 20.552 20.0051 20.5632C20.0627 20.5857 20.1319 20.5744 20.1895 20.5295C20.2471 20.4846 20.201 20.4285 20.178 20.3948C20.0973 20.2377 20.0166 20.0918 19.936 19.9459C19.8438 19.7999 19.7631 19.6316 19.7055 19.4744C19.6364 19.2948 19.6364 19.104 19.694 18.9244C19.7631 18.9244 19.7977 18.9806 19.8438 19.0142C20.1319 19.2724 20.4084 19.5418 20.7196 19.7887C20.7542 19.8112 20.7772 19.8336 20.8118 19.8561C21.0422 20.0693 21.3419 20.1928 21.653 20.2153C22.1024 20.2602 22.5288 20.3836 22.9206 20.5969C22.9897 20.6306 23.0704 20.6642 23.1741 20.6979C23.0935 20.4846 23.0243 20.2826 22.9437 20.0918C22.8745 19.9795 22.8976 19.8336 22.9897 19.7438C23.0819 19.6316 23.1741 19.5193 23.2778 19.4183C23.3009 19.3846 23.347 19.351 23.3931 19.351C23.4737 19.5081 23.5544 19.6877 23.6351 19.8448C23.7157 20.002 23.6927 20.1928 23.7388 20.3724C23.7734 20.2826 23.7849 20.204 23.7734 20.1142C23.7734 19.8448 23.8425 19.7663 24.1075 19.6989C24.2343 19.6653 24.3611 19.654 24.4878 19.6428C24.5915 19.6428 24.6031 19.6428 24.6146 19.7551C24.6261 19.9234 24.5915 20.0918 24.5339 20.2602C24.5109 20.3163 24.4994 20.3724 24.4648 20.4622C24.6837 20.3836 24.8681 20.2938 25.0755 20.3387C25.2714 20.3948 25.4558 20.5071 25.5941 20.653C25.4789 20.754 25.3521 20.8326 25.2023 20.8887C25.1216 20.9224 25.041 20.9448 24.9603 20.9673C24.7644 21.0346 24.5915 21.1469 24.4533 21.304C24.5109 21.3938 24.6146 21.4499 24.7183 21.4499C25.0064 21.4948 25.2714 21.652 25.4443 21.8877C25.4904 21.9551 25.5365 22.0224 25.5595 22.0897C25.5826 22.1459 25.5826 22.1683 25.5134 22.202C25.306 22.303 25.0755 22.303 24.8681 22.202L24.6146 22.0673C24.3956 21.9551 24.1536 21.9102 23.9116 21.9214C23.8425 21.9214 23.8079 21.955 23.8079 22.0224C23.8079 22.1122 23.7849 22.202 23.7734 22.303C23.7734 22.4377 23.7388 22.5724 23.854 22.6846C23.9001 22.7295 23.8655 22.7744 23.7849 22.7744C23.4392 22.8193 23.1165 22.5836 23.0704 22.2469C23.0704 22.2244 23.0704 22.202 23.0704 22.1683C23.0589 22.0561 23.0589 21.9551 23.0819 21.8428C23.0935 21.7867 23.0935 21.7193 23.0935 21.6632L22.5058 21.7306C22.5173 21.7979 22.5403 21.8653 22.5749 21.9326C22.7938 22.4377 23.0243 22.9428 23.1972 23.4704C23.3931 24.054 23.5083 24.6714 23.5198 25.2887C23.5544 26.4448 23.347 27.601 22.886 28.6785C22.3675 29.8571 21.5378 30.8897 20.4776 31.6642C20.1319 31.9224 19.7746 32.1581 19.3944 32.3714C19.3137 32.4163 19.233 32.4724 19.1524 32.5173C18.991 32.6071 18.8988 32.7642 18.9104 32.9438C18.9219 33.1122 18.9104 33.2806 18.8643 33.4377C18.7836 33.6846 18.6453 33.9091 18.4609 34.0887C18.4148 34.0663 18.3918 34.0214 18.3572 33.9765C18.3111 33.9204 18.265 33.8642 18.2074 33.8081C18.1498 33.7408 18.0576 33.7408 17.9885 33.7969C17.9654 33.8081 17.9539 33.8306 17.9424 33.853C17.8848 33.954 17.8617 34.0775 17.8732 34.201C17.9078 34.4704 17.781 34.6612 17.5851 34.8295C17.4814 34.7397 17.4238 34.605 17.3201 34.4928C17.1703 34.6612 17.032 34.8183 16.8937 34.9755C16.9052 35.0316 16.9513 35.0316 16.9859 35.0316C17.1357 35.054 17.2855 35.0653 17.4469 35.0877C17.6312 35.1214 17.781 35.2224 17.8732 35.3795C18.0461 35.6489 18.1498 35.9632 18.1959 36.2775C18.2074 36.4122 18.1844 36.5469 18.1152 36.6704C18.0346 36.6479 18 36.5806 17.9654 36.5244C17.9193 36.4346 17.8502 36.3673 17.781 36.2999C17.7004 36.2214 17.5736 36.1877 17.4584 36.2102C17.2625 36.2551 17.0551 36.1989 16.8937 36.0755C16.8591 36.053 16.8246 36.0306 16.79 36.0193C16.6517 36.2214 16.4558 36.401 16.306 36.603C16.1447 36.8275 16.064 37.1081 16.0871 37.3775C16.0871 37.4897 16.0986 37.602 16.1101 37.7142C16.1216 37.8826 16.064 38.0397 15.9603 38.1632C15.8566 38.2867 15.7644 38.4214 15.6837 38.5785C15.6261 38.5897 15.6031 38.5561 15.5685 38.5224C15.338 38.2979 15.1652 38.0061 15.096 37.6918C15.0615 37.5459 15.096 37.3887 15.1882 37.2653C15.2228 37.1979 15.2804 37.1418 15.315 37.0744C15.4187 36.9173 15.4533 36.7377 15.4187 36.5581C15.3726 36.5357 15.338 36.5693 15.3034 36.5806C15.0038 36.6816 14.7042 36.7714 14.4161 36.8948C14.3009 36.9285 14.2087 37.0295 14.1741 37.153C14.1165 37.3326 13.9667 37.4785 13.7823 37.5234L13.6901 37.5459C13.6325 37.5571 13.5979 37.6132 13.6095 37.6693V37.6806C13.6325 37.8153 13.6556 37.9499 13.6786 38.0959C13.4251 37.9387 13.2407 37.6918 13.1716 37.4112C13.1255 37.1642 13.2061 36.9061 13.379 36.7265C13.5634 36.5357 13.7823 36.3785 14.0243 36.2775C14.2202 36.1316 14.4046 36.0755 14.589 36.0193Z" fill="#E9B201"/>
<path d="M9.58774 18.8572C9.58774 18.8459 9.57622 18.8347 9.57622 18.8347C9.72603 18.599 9.92193 18.4194 10.2446 18.4194C10.5096 18.4306 10.7632 18.4194 11.0282 18.3969C11.2126 18.3745 11.3854 18.3296 11.5698 18.2735C11.5237 18.1612 11.4085 18.0939 11.2817 18.0827C11.2356 18.0827 11.2126 18.0714 11.1895 18.0378C11.1665 18.0041 11.2011 17.9704 11.2356 17.948C11.4431 17.7684 11.7311 17.6898 12.0077 17.7235C12.1806 17.7572 12.3534 17.802 12.5148 17.8582C12.6415 17.9143 12.7913 17.9143 12.9296 17.8582C13.0218 17.8245 13.1255 17.8133 13.2292 17.8245C13.1486 17.7235 13.1255 17.6 12.9642 17.6112C12.9411 17.6112 12.9296 17.6 12.9066 17.5888C12.8259 17.5439 12.8259 17.5102 12.9066 17.4653C13.3099 17.2184 13.84 17.2633 14.1857 17.5776C14.4162 17.7908 14.6121 17.8245 14.9463 17.7459C14.8886 17.5663 14.7273 17.4429 14.5429 17.4092C14.831 17.1847 15.2344 17.1623 15.557 17.3531C15.6722 17.4316 15.776 17.5214 15.8912 17.6C16.1101 17.7572 16.3867 17.8357 16.6633 17.8133C16.6287 17.7123 16.5596 17.6225 16.4674 17.5551C16.3867 17.499 16.2715 17.4765 16.1908 17.3755C16.4674 17.2857 16.767 17.3194 17.009 17.4653C17.1358 17.5439 17.251 17.6225 17.3547 17.7235C17.4469 17.802 17.5506 17.8806 17.6543 17.948C17.758 17.8694 17.7004 17.802 17.6658 17.7235C17.6313 17.6449 17.6198 17.5776 17.5967 17.499C17.6543 17.4765 17.7119 17.4765 17.7696 17.499C18.1959 17.6337 18.5877 17.8694 18.8989 18.1949C19.0026 18.3184 19.0833 18.4643 19.1294 18.6102C19.2446 18.9469 19.3253 19.2949 19.3829 19.6541C19.4174 19.7888 19.4405 19.9347 19.452 20.0806C19.452 20.148 19.452 20.2153 19.4405 20.2827C19.3944 20.552 19.4174 20.8214 19.5212 21.0684C19.5673 21.2143 19.6364 21.349 19.6825 21.4949C19.7286 21.6184 19.7286 21.7531 19.6825 21.8765C19.5673 22.202 19.5673 22.5388 19.6825 22.8643C19.6825 22.8755 19.6825 22.8867 19.694 22.898C19.7862 23.0776 19.7171 23.2123 19.5788 23.3357C19.5096 23.4031 19.452 23.4929 19.4405 23.5939C19.4059 23.7623 19.3829 23.9306 19.3944 24.099C19.4059 24.2225 19.3829 24.3459 19.3022 24.4582C19.2561 24.3796 19.2215 24.301 19.1985 24.2112C19.1178 23.9755 19.0487 23.751 18.9795 23.5153C18.8874 23.2347 18.7491 22.9653 18.5647 22.7184C18.461 22.5725 18.3573 22.4153 18.2651 22.2582C18.1959 22.1459 18.1729 22 18.219 21.8653C18.2536 21.7306 18.2651 21.5959 18.2305 21.4612C18.1614 21.0571 18.0116 20.6867 17.7811 20.35C17.6889 20.2153 17.5621 20.0918 17.4123 20.0133C17.1012 19.8449 16.8246 19.9459 16.6863 20.2602C16.6057 20.4959 16.5941 20.7429 16.6518 20.9786C16.6633 21.0571 16.6863 21.1245 16.6979 21.2143C16.5826 21.2143 16.4674 21.1918 16.3521 21.1582C16.1678 21.102 15.9834 21.0572 15.799 21.0235C15.0269 20.9 14.2433 21.0123 13.5404 21.349C13.2062 21.5174 12.8835 21.7082 12.5839 21.9327C12.4571 22.0337 12.3189 22.1235 12.1806 22.2133C12.0769 22.2806 11.9501 22.3143 11.8233 22.3031C11.6505 22.2806 11.4776 22.2806 11.3048 22.2582C10.7747 22.202 10.2676 22.2918 9.7606 22.3929C9.2766 22.4939 8.80413 22.6061 8.30861 22.6735C7.9629 22.7408 7.59414 22.7296 7.24843 22.6623C6.96034 22.5837 6.96034 22.5837 7.05253 22.3031C7.11015 22.1347 7.16777 21.9551 7.22538 21.7867C7.27148 21.6408 7.30605 21.6184 7.12167 21.5735C7.11015 21.5735 7.0871 21.5623 7.07558 21.5623C7.00643 21.5398 6.96034 21.4612 6.99491 21.3939C6.99491 21.3827 7.00643 21.3827 7.00643 21.3714C7.0871 21.1133 7.30605 20.9 7.57109 20.8327C7.64024 20.8102 7.70938 20.7878 7.79005 20.7765C8.08966 20.6867 8.34318 20.4959 8.50451 20.2378C8.56213 20.148 8.55061 20.1367 8.4469 20.1367C8.37775 20.1255 8.29709 20.1255 8.22795 20.1255C8.1588 20.1255 8.13576 20.0806 8.1588 20.0245C8.22795 19.8225 8.36623 19.6653 8.56213 19.5755C8.74651 19.4969 8.95394 19.452 9.16136 19.4296C9.17289 19.4296 9.19594 19.4296 9.20746 19.4296C9.40336 19.4408 9.59926 19.3735 9.74907 19.2388C9.80669 19.1939 9.86431 19.149 9.93345 19.1153C9.9565 19.0929 9.99107 19.0816 9.97955 19.048C9.96802 19.0143 9.9565 18.9806 9.92193 18.9806C9.82974 18.9918 9.74907 18.9245 9.65688 18.9357C9.61079 18.8684 9.59926 18.8684 9.58774 18.8572Z" fill="#E9B201"/>
<path d="M14.5314 28.6225C14.6582 28.645 14.7734 28.6899 14.8771 28.7572C15.0615 28.8694 15.2344 28.9817 15.4072 29.1052C15.557 29.2062 15.7184 29.2735 15.9027 29.3184C16.0064 29.3409 16.1217 29.3409 16.2369 29.3296C16.5481 29.296 16.767 29.0266 16.7324 28.7347C16.7324 28.7011 16.7209 28.6674 16.7094 28.6337C16.6518 28.4092 16.5365 28.196 16.3752 28.0276C16.2254 27.8705 16.0641 27.7133 15.8912 27.5786C15.6492 27.3766 15.3957 27.1858 15.1767 26.9613C14.8886 26.6807 14.6466 26.3552 14.4738 25.996C14.4277 25.895 14.4162 25.895 14.3125 25.9286C14.2087 25.9623 14.0705 25.996 13.9437 26.0296C13.7593 26.0633 13.5749 26.1307 13.4251 26.2205C13.379 26.1531 13.3329 26.0858 13.2984 26.0184C13.2408 25.8837 13.091 25.8164 12.9527 25.8613C12.9066 25.8725 12.8605 25.8725 12.8029 25.8837C12.8144 26.0633 12.895 26.2317 13.0449 26.3327C13.2292 26.4562 13.4482 26.546 13.6671 26.5909C13.7363 26.6021 13.8054 26.5796 13.8515 26.5235C13.9091 26.4562 13.9783 26.4001 14.0589 26.3552C14.105 26.3215 14.1627 26.3327 14.2088 26.3664C14.4623 26.6245 14.6927 26.8939 14.7734 27.2531C14.8426 27.5225 14.7273 27.8031 14.4738 27.9266C14.347 27.9939 14.2203 28.0388 14.0705 28.0501C14.0935 27.9266 14.1857 27.8368 14.1972 27.7133C14.2087 27.5898 14.1857 27.4664 14.1396 27.3541C13.8976 27.4552 13.6671 27.5674 13.5289 27.7919C13.4943 27.848 13.4712 27.9041 13.4367 27.9603C13.2869 28.2521 12.9757 28.4205 12.6415 28.4205C12.5263 28.4205 12.4226 28.3868 12.3189 28.3307C12.1345 28.2409 11.9616 28.1174 11.7427 28.0613C11.6966 28.0501 11.6851 28.0052 11.6735 27.9715C11.662 27.8929 11.639 27.8143 11.6274 27.7245C11.6159 27.6572 11.5929 27.5786 11.5583 27.5225C11.5237 27.4103 11.397 27.3541 11.2933 27.3878C11.2126 27.4103 11.1319 27.4439 11.0628 27.4888C11.0167 27.5113 10.9706 27.5562 10.913 27.5674C10.7516 27.298 10.8784 27.0847 11.0743 26.8827C10.9014 26.8378 10.7632 26.8154 10.6249 26.7705C10.4981 26.7368 10.3829 26.6919 10.2792 26.6245C10.2216 26.6021 10.187 26.5347 10.21 26.4786C10.3137 26.097 10.6364 25.8164 11.0397 25.749C11.3163 25.7041 11.6044 25.7154 11.881 25.7603C11.9386 25.7715 12.0077 25.7827 12.0769 25.7715C11.8925 25.5694 11.6274 25.446 11.3509 25.4348C11.155 25.4348 10.9591 25.446 10.7632 25.4796C10.6134 25.5021 10.452 25.5133 10.3022 25.4909C10.3368 25.4011 10.3829 25.3225 10.452 25.2664C10.6018 25.1205 10.7632 24.997 10.936 24.896C11.0282 24.8399 11.1204 24.7725 11.2011 24.6939C11.1319 24.6378 11.0513 24.5929 10.9706 24.5817C10.8438 24.548 10.7055 24.5256 10.5673 24.5143C10.0602 24.5031 9.55318 24.5256 9.05766 24.5929C8.63128 24.6378 8.20491 24.7164 7.77853 24.7388C7.14473 24.7725 6.51092 24.6715 5.92321 24.4582C5.68122 24.3684 5.45074 24.2337 5.25484 24.0766C5.12808 23.9756 5.03589 23.8296 4.97827 23.6837C5.07046 23.6613 5.17417 23.6613 5.26636 23.695C5.47379 23.7399 5.68122 23.8072 5.88864 23.897C6.52245 24.1327 7.22539 24.1888 7.89377 24.0429C8.43538 23.9419 8.95395 23.7735 9.48404 23.6388C9.93346 23.5041 10.4059 23.448 10.8784 23.4705C11.0397 23.4817 11.2126 23.4705 11.3739 23.4368C11.5237 23.4031 11.662 23.347 11.7888 23.246C11.662 23.1562 11.5007 23.1001 11.3509 23.0888C10.9706 23.0439 10.5903 23.0552 10.21 23.1337C9.65689 23.2235 9.1268 23.3807 8.58519 23.5041C7.85919 23.6725 7.09863 23.6388 6.38416 23.4256C6.19978 23.3807 6.03845 23.2909 5.88864 23.1786C5.76188 23.0776 5.68122 22.9317 5.69274 22.7745C5.69274 22.6848 5.70426 22.6735 5.79645 22.696C5.93474 22.7296 6.0615 22.7858 6.17674 22.8531C6.4533 22.999 6.75292 23.1001 7.05254 23.1674C7.50196 23.2572 7.96291 23.2684 8.41233 23.2011C8.94242 23.1337 9.44946 22.999 9.96803 22.8868C10.2676 22.8194 10.5788 22.7745 10.8899 22.7521C11.2472 22.7296 11.6159 22.7633 11.9616 22.8531C12.2152 22.9092 12.4917 22.898 12.7337 22.8082C13.114 22.6735 13.0449 22.6848 13.2523 22.9766C13.3675 23.1562 13.4597 23.347 13.5173 23.549C13.5404 23.6276 13.5749 23.7062 13.6095 23.7735C13.6441 23.8633 13.7478 23.9082 13.84 23.897C13.863 23.897 13.8976 23.897 13.9207 23.8858C14.2318 23.796 14.5429 23.7399 14.8541 23.695C15.1076 23.6613 15.315 23.4817 15.3842 23.246C15.4187 23.145 15.4533 23.0439 15.4764 22.9541C15.4994 22.8643 15.534 22.7745 15.5801 22.696C15.6723 22.4715 15.8682 22.3031 16.1102 22.2358C16.2484 22.1909 16.3867 22.1684 16.525 22.1348C16.8016 22.0674 17.0551 21.9439 17.2741 21.7643C17.3547 21.7082 17.3893 21.6072 17.3547 21.5286C17.3086 21.3827 17.2625 21.2368 17.228 21.0797C17.2049 20.9899 17.1819 20.9113 17.1588 20.8215C17.1242 20.7092 17.1473 20.597 17.2164 20.5072C17.2856 20.5297 17.3201 20.5858 17.3662 20.6419C17.5506 20.9001 17.6543 21.1919 17.6889 21.5062C17.7004 21.5848 17.7004 21.6745 17.712 21.7531C17.7465 21.8766 17.6774 22.0001 17.5621 22.045C17.3893 22.1348 17.228 22.2133 17.0436 22.2807C16.8477 22.348 16.6633 22.4266 16.4789 22.5276C16.2945 22.6174 16.1793 22.7858 16.1678 22.9766C16.1678 23.1225 16.283 23.2348 16.4213 23.246C16.5826 23.2348 16.7555 23.2909 16.8822 23.3807C16.9629 23.448 17.0666 23.5041 17.1588 23.549C17.2741 23.6052 17.4123 23.6388 17.5391 23.6388C17.5967 23.6388 17.6543 23.6276 17.7004 23.6837C17.5852 23.7511 17.4584 23.8072 17.3317 23.8633C17.1819 23.9419 17.1703 23.897 17.2049 24.0878C17.2164 24.1552 17.228 24.2337 17.2164 24.3011C17.2049 24.3909 17.1703 24.4133 17.0781 24.3796C16.986 24.3348 16.8938 24.3123 16.7901 24.3123C16.7324 24.3011 16.6633 24.346 16.6518 24.4021C16.6518 24.4133 16.6518 24.4133 16.6518 24.4245C16.6287 24.5256 16.6057 24.6378 16.5826 24.7388C16.5711 24.795 16.5481 24.8062 16.4904 24.7837C16.3983 24.7501 16.3061 24.7276 16.2139 24.6939C16.1908 24.6827 16.1447 24.6827 16.1332 24.7164C16.1332 24.7164 16.1332 24.7276 16.1217 24.7388C16.0986 24.8062 16.0641 24.8735 16.0295 24.9409C16.0064 25.0194 15.9258 25.0643 15.8451 25.0419C15.8221 25.0419 15.8105 25.0307 15.7875 25.0194C15.6723 24.9521 15.6607 24.9521 15.6377 25.0868C15.6146 25.2552 15.5225 25.4123 15.3957 25.5358C15.3265 25.4796 15.2689 25.4123 15.2344 25.3337C15.2113 25.3113 15.1998 25.2776 15.1652 25.2776C15.1306 25.2776 15.1306 25.3225 15.1191 25.345C15.0961 25.5021 15.1076 25.6705 15.1537 25.8164C15.2228 26.0409 15.3265 26.2541 15.4879 26.4337C15.6723 26.647 15.8682 26.849 16.0756 27.0399C16.3406 27.2756 16.5826 27.5225 16.8131 27.7807C17.0551 28.0501 17.2164 28.3643 17.2856 28.7123C17.3086 28.8582 17.3201 29.0041 17.2971 29.1501C17.2625 29.4082 17.0781 29.6215 16.8246 29.7001C16.5711 29.7786 16.2945 29.7898 16.041 29.7337C15.6377 29.6664 15.2689 29.5205 14.9347 29.2847C14.7965 29.195 14.6812 29.0715 14.6006 28.9368C14.5429 28.8358 14.5199 28.7347 14.5314 28.6225ZM12.2612 24.9745C12.4341 25.0531 12.63 25.0756 12.8144 25.0419C13.114 24.997 13.2869 24.8062 13.2869 24.548C13.2869 24.5256 13.2869 24.4919 13.2753 24.4694C13.1831 24.3684 13.0333 24.346 12.9181 24.4133C12.7798 24.548 12.6185 24.6603 12.4456 24.7501C12.3534 24.8062 12.2843 24.8848 12.2612 24.9745ZM15.4418 23.998C15.4994 24.0429 15.5685 24.0766 15.6492 24.099C15.9143 24.2225 16.2139 24.1776 16.4328 23.9868C16.5135 23.9307 16.5135 23.9194 16.4328 23.8521C16.3176 23.7623 16.1678 23.7286 16.0295 23.7735C15.8221 23.8072 15.6262 23.8858 15.4418 23.998Z" fill="#E9B201"/>
<path d="M4.62105 31.3837C4.78238 31.4062 4.95524 31.4062 5.11657 31.4062C5.39314 31.3949 5.63513 31.2715 5.78494 31.047C5.6697 31.047 5.54294 31.0582 5.42771 31.0919C5.26638 31.1256 5.10504 31.1705 4.93219 31.2041C4.75933 31.249 4.56343 31.2266 4.4021 31.148C3.95268 30.9011 3.63001 30.5531 3.53782 30.0368C3.48021 29.7113 3.59544 29.4194 3.74525 29.1051C3.77982 29.1837 3.81439 29.2286 3.83744 29.2847C3.92963 29.498 4.05639 29.7113 4.2062 29.9021C4.4021 30.1602 4.70172 30.3062 5.0359 30.3062C5.19723 30.3062 5.35857 30.2949 5.50837 30.25C6.00389 30.1266 6.25741 29.7786 6.3957 29.3296C6.3957 29.3184 6.3957 29.3184 6.38417 29.3072C6.32655 29.3296 6.31503 29.3858 6.28046 29.4194C5.94627 29.7786 5.53142 29.9807 5.02438 29.9245C4.71324 29.9021 4.44819 29.7113 4.33296 29.4307C4.24077 29.2174 4.21772 28.9817 4.24077 28.746C4.24077 28.6786 4.27534 28.6562 4.34448 28.6674C4.44819 28.6786 4.54038 28.7011 4.63257 28.746C4.98981 28.948 5.33552 28.8694 5.6697 28.6786C6.01542 28.499 6.23437 28.1511 6.24589 27.7694C6.26894 27.4439 6.28046 27.1184 6.25741 26.7929C6.22284 26.3664 6.25741 25.9398 6.33808 25.5358C6.43027 25.1654 6.41874 25.1654 6.81055 25.1878C6.99493 25.199 7.16778 25.2103 7.35216 25.2103C7.43283 25.2103 7.44435 25.2327 7.43283 25.3113C7.38673 25.547 7.32911 25.7827 7.24845 26.0184C7.07559 26.5684 6.9834 27.1409 6.97188 27.7245C6.94883 28.3307 6.97188 28.9368 6.9834 29.5317C7.00645 29.9021 6.97188 30.2613 6.90274 30.6205C6.81055 31.0582 6.52246 31.4174 6.11913 31.6082C5.9117 31.7205 5.68123 31.799 5.43923 31.8327C5.07047 31.8888 4.80543 31.7541 4.62105 31.3837Z" fill="#E9B201"/>
<path d="M17.3547 26.0969C17.3547 26.2428 17.4123 26.3887 17.4239 26.5346C17.4239 26.5795 17.493 26.6581 17.4239 26.6805C17.3547 26.7142 17.2625 26.703 17.2049 26.6469C17.1588 26.602 17.1127 26.5683 17.0551 26.5346C16.9975 26.4897 16.9053 26.4897 16.8477 26.5459C16.7901 26.5907 16.7209 26.6469 16.6633 26.6918C16.5365 26.7928 16.3522 26.7928 16.2369 26.6805C16.1563 26.6244 16.0871 26.5459 16.0295 26.4673C15.9027 26.3101 15.7875 26.1305 15.6953 25.951C15.7529 25.9397 15.8106 25.9397 15.8797 25.9622C16.018 25.9846 16.1563 25.9622 16.283 25.8948C16.4098 25.8275 16.4213 25.7938 16.3637 25.6703C16.3176 25.5805 16.283 25.4908 16.2369 25.401C16.2139 25.3561 16.2254 25.3224 16.283 25.3112C16.3867 25.2775 16.4904 25.2887 16.5942 25.3336C16.6172 25.3448 16.6287 25.3448 16.6518 25.3561C16.8477 25.4122 16.8592 25.401 16.8938 25.2101C16.9053 25.0867 16.9283 24.9744 16.9744 24.8622C17.2164 25.0081 17.493 25.053 17.7465 25.1877C17.7926 25.2101 17.8502 25.2438 17.8963 25.2775C18.0346 25.3785 18.0231 25.3785 17.9309 25.5244C17.8733 25.603 17.8502 25.704 17.8502 25.805C17.8618 26.1081 17.8848 26.0632 17.5852 26.0744C17.5276 26.0744 17.47 26.0856 17.4123 26.0856C17.3778 26.0744 17.3662 26.0856 17.3547 26.0969Z" fill="#E9B201"/>
<path d="M4.97826 28.5327C4.8054 28.5327 4.65559 28.4541 4.5634 28.3194C4.52883 28.2857 4.52883 28.2296 4.5634 28.1959C4.57493 28.1847 4.59798 28.1735 4.6095 28.1735C4.66712 28.1623 4.72474 28.1623 4.78235 28.151C4.89759 28.1398 4.89759 28.1398 4.90911 28.0276C4.90911 27.949 4.90911 27.8704 4.90911 27.7919C4.89759 27.747 4.93216 27.7021 4.98978 27.6908C5.07045 27.6684 5.15111 27.646 5.23178 27.6235C5.42768 27.5786 5.63511 27.6684 5.7273 27.848C5.79644 27.9602 5.85406 28.0837 5.90015 28.1959C5.9232 28.2408 5.9232 28.2857 5.86558 28.2857C5.62358 28.3306 5.39311 28.4316 5.15111 28.4878C5.07045 28.5214 5.02435 28.5327 4.97826 28.5327Z" fill="#E9B201"/>
<path d="M9.60992 18.8911C9.59852 18.9024 9.60992 18.9365 9.58713 18.9365C9.55294 18.9365 9.53015 18.9024 9.53015 18.8797C9.53015 18.8684 9.56434 18.857 9.57573 18.8684C9.58713 18.8797 9.59852 18.8911 9.60992 18.8911Z" fill="#E9B201"/>
</svg>
