<svg width="90" height="55" viewBox="0 0 90 55" fill="none" xmlns="http://www.w3.org/2000/svg"><path d="M20.562 26.494c0 .537-.07 1.073-.139 1.61-.761 3.622-3.946 6.304-7.823 6.506h-.346c-4.639 0-8.308-3.622-8.308-8.05 0-4.493 3.739-8.048 8.308-8.048 4.638-.067 8.308 3.488 8.308 7.982z" fill="#479B65"/><path d="M14.539 25.152h.553c.416 0 .762.202 1.039.47.207.268.415.604.484.939.07.335.139.604.139.939 0 .335-.139.604-.346.872a2.078 2.078 0 01-.554.537c-.139.134-.277.2-.485.335a11.43 11.43 0 01-.9.402c-.069 0-.138.067-.069.134.139.47.346.94.485 1.476v.067l-.831.201c-.07 0-.07.067-.139-.067-.138-.47-.346-.939-.484-1.475 0-.067 0-.067-.07-.067l-.692.2c-.069 0-.069.068-.069.068l.554 1.543-.97.47c-.069 0-.069 0-.069-.068-.069-.268-.207-.537-.277-.805l-.207-.67c0-.068-.07-.068-.07-.068l-1.246.403-.692.201c-.07 0-.07 0-.07-.067-.068-.335-.138-.738-.138-1.073 0-.067 0-.067.07-.134.207-.067.415-.135.692-.202.208-.067.277-.335.208-.47l-.831-2.347-.623-1.81c-.07-.269-.346-.403-.623-.336a3.45 3.45 0 00-.762.268h-.07L7.2 24.08c0-.067 0-.067.07-.067.415-.134.9-.268 1.315-.402l.553-.201c.07 0 .07-.068 0-.068l-.484-1.408c0-.067 0-.134.07-.134.276-.067.553-.201.83-.269.07 0 .07 0 .07.067.138.47.345.94.484 1.409 0 .067 0 .067.069.067l.692-.201c.07 0 .07 0 .07-.067-.139-.47-.347-.94-.485-1.409 0-.067 0-.067.07-.067l.83-.268c.07 0 .07 0 .138.067l.485 1.409c0 .067.07.067.138.067.416-.134.831-.134 1.246-.134.416 0 .831.134 1.178.402.207.134.346.335.484.604.139.268.208.536.208.804 0 .403-.139.738-.416 1.006l-.276-.134zm-2.078.336c.07 0 .139-.067.208-.134l.208-.202c.346-.268.415-.737.138-1.14a1.075 1.075 0 00-.554-.402c-.346-.067-.692 0-1.038.067-.277.067-.554.201-.9.268-.07 0-.07.067-.07.134.209.537.416 1.073.555 1.61 0 .067 0 .134.069.201.07 0 .138 0 .208-.067.415 0 .83-.134 1.176-.335zm1.524 2.884c.138-.067.207-.134.346-.268.138-.134.277-.269.346-.403.138-.402 0-.805-.277-1.006a1.367 1.367 0 00-.692-.201c-.347 0-.623.067-.97.134a6.96 6.96 0 00-1.107.335c-.07 0-.07.067-.07.067.208.671.485 1.342.693 1.946 0 .067.07.067.138.067.208-.067.485-.134.693-.269.276-.067.623-.2.9-.402z" fill="#FEFEFE"/><path d="M26.446 24.617c.415 0 .762.067 1.039.201.277.134.553.336.761.537.208.268.346.537.416.872.069.335.138.67.138 1.006 0 .537-.139 1.073-.346 1.61a3.564 3.564 0 01-.9 1.341c-.346.403-.83.67-1.316.872a4.299 4.299 0 01-1.661.335h-.416c-.207 0-.415 0-.623-.067-.276 0-.484-.067-.761-.134s-.554-.134-.762-.268l2.216-8.988 2.007-.268-.83 3.152c.138-.067.346-.134.484-.2.139-.068.346 0 .554 0zm-1.661 5.232c.276 0 .553-.067.83-.201.277-.135.485-.336.693-.537.207-.201.346-.47.484-.805.139-.268.139-.604.139-.939 0-.402-.07-.67-.208-.939-.138-.268-.415-.335-.761-.335-.139 0-.277 0-.485.067-.208.067-.346.134-.485.268l-.83 3.354h.414c.07 0 .138.067.208.067zm6.438 1.341h-1.87l1.593-6.507h1.87l-1.593 6.506zm.9-7.245c-.277 0-.485-.067-.692-.201a.818.818 0 01-.346-.67c0-.202.069-.336.138-.47a1.4 1.4 0 01.277-.403c.138-.134.277-.2.415-.268.139-.067.346-.067.485-.067.277 0 .485.067.692.201a.817.817 0 01.346.67c0 .202-.069.336-.138.47-.07.135-.139.269-.277.403s-.277.201-.415.268c-.139 0-.277.067-.485.067zm2.631-.872l2.008-.268-.485 1.945h2.146l-.415 1.476H35.93l-.623 2.28c-.07.201-.07.336-.07.537 0 .134 0 .335.07.402a.535.535 0 00.277.269c.138.067.346.067.553.067.208 0 .416 0 .623-.067.208-.067.416-.067.554-.135l.139 1.409c-.277.067-.554.201-.83.201-.278.067-.624.067-1.04.067-.553 0-1.038-.067-1.384-.268-.346-.201-.554-.402-.692-.67-.139-.269-.208-.604-.208-1.007 0-.402.07-.805.208-1.207l1.246-5.03zm3.669 5.567c0-.536.07-1.073.277-1.61.208-.469.485-.939.83-1.274.347-.402.762-.67 1.247-.872a4.298 4.298 0 011.661-.335c.416 0 .693.067 1.039.134.277.067.554.134.83.268l-.692 1.409c-.138-.067-.346-.134-.553-.201-.208-.067-.416-.067-.693-.067-.623 0-1.108.2-1.523.603-.346.403-.554 1.006-.554 1.677 0 .402.07.738.277 1.006.208.268.554.402 1.039.402.277 0 .484 0 .692-.067l.623-.2.139 1.475c-.208.067-.485.201-.762.268a4.316 4.316 0 01-1.038.134c-.554 0-.97-.067-1.316-.2-.346-.135-.692-.336-.9-.605-.208-.268-.415-.536-.484-.872-.07-.335-.139-.737-.139-1.073zm8.447 2.75c-.485 0-.831-.067-1.178-.2a2.498 2.498 0 01-.83-.538 3.58 3.58 0 01-.485-.872c-.139-.335-.139-.67-.139-1.073 0-.47.07-1.006.277-1.475.139-.47.416-.94.762-1.342.346-.402.692-.738 1.177-.939a3.11 3.11 0 011.592-.402c.416 0 .83.067 1.177.201.346.134.623.335.83.537.209.268.347.536.486.872.138.335.138.67.138 1.073 0 .47-.07 1.006-.208 1.475-.138.47-.415.94-.692 1.342-.346.402-.692.738-1.177.939-.485.201-1.108.402-1.73.402zm.969-5.299a1.43 1.43 0 00-.762.202 1.602 1.602 0 00-.554.603c-.138.269-.277.47-.346.805-.07.269-.139.537-.139.805 0 .403.07.738.208.94.139.2.415.334.762.334.277 0 .553-.067.761-.2.208-.135.416-.336.554-.604.139-.269.277-.47.346-.805.07-.268.139-.537.139-.805 0-.402-.07-.738-.208-.94-.208-.2-.415-.334-.761-.334zm5.191 5.099h-1.868l1.592-6.507h1.87l-1.593 6.506zm.9-7.245c-.276 0-.484-.067-.691-.201a.817.817 0 01-.347-.67c0-.202.07-.336.139-.47.069-.134.138-.268.277-.403.138-.134.277-.2.415-.268.139-.067.346-.067.485-.067.277 0 .484.067.692.201a.817.817 0 01.346.67c0 .202-.07.336-.138.47a1.4 1.4 0 01-.277.403 1.455 1.455 0 01-.416.268c-.138 0-.276.067-.484.067zm2.355 1.073c.138-.067.277-.067.484-.134.208-.067.346-.134.554-.134.208-.067.485-.067.692-.134.277 0 .554-.067.9-.067.97 0 1.662.268 2.077.872.347.536.416 1.341.208 2.28l-.9 3.488h-1.87l.831-3.42c.07-.202.07-.403.139-.604.07-.201 0-.403 0-.537s-.139-.268-.208-.402a1.338 1.338 0 00-.553-.134c-.278 0-.485 0-.762.067l-1.246 5.03h-1.87l1.524-6.17zm10.869 5.902c-.139.135-.415.202-.762.336-.346.134-.761.134-1.177.134-.761 0-1.384-.2-1.73-.67-.416-.403-.554-1.006-.554-1.744 0-.537.069-1.073.277-1.61.207-.537.415-.939.761-1.341.346-.403.762-.738 1.246-.94a4.394 4.394 0 011.731-.335c.416 0 .9.067 1.316.201l-.416.671c-.208-.067-.415-.134-.554-.134-.138 0-.346-.067-.553-.067-.485 0-.831.067-1.247.268-.346.201-.692.47-.969.738-.277.335-.484.67-.623 1.073a4.203 4.203 0 00-.208 1.342c0 .536.139.939.416 1.274.277.335.692.47 1.246.47.208 0 .346 0 .554-.068.207 0 .346-.067.484-.134.139-.067.277-.067.416-.134.138-.067.207-.067.277-.134l.069.805zm5.607.403c-.069-.067-.069-.201-.138-.335-.07-.134-.07-.268-.07-.403a2.89 2.89 0 01-.968.604 2.856 2.856 0 01-1.039.201 2.56 2.56 0 01-.761-.134c-.208-.067-.485-.201-.623-.402a1.993 1.993 0 01-.485-.738c-.139-.268-.208-.67-.208-1.073 0-.671.139-1.275.346-1.811a3.866 3.866 0 01.9-1.342c.416-.402.831-.67 1.385-.872a5.042 5.042 0 011.8-.335c.554 0 1.038.067 1.523.268l-.97 3.823c-.068.202-.068.403-.138.604-.069.201-.069.335-.069.537 0 .2 0 .402.07.603.069.202.138.403.207.671l-.761.134zm.762-5.768c-.138 0-.277-.067-.415-.067h-.416c-.553 0-.969.067-1.384.268a3.05 3.05 0 00-1.039.805c-.277.335-.484.67-.623 1.073a3.793 3.793 0 00-.207 1.275c0 .335 0 .603.069.872.069.2.138.402.277.536.138.134.276.268.415.268.138 0 .346.067.485.067.346 0 .692-.067.969-.268s.623-.402.9-.67c0-.202 0-.47.07-.738.068-.269.138-.537.207-.805l.692-2.616zm1.385 4.628c.346.134.623.268.83.335.208.067.485.067.831.067.208 0 .416 0 .623-.067.208-.067.347-.134.485-.2a.821.821 0 00.346-.336c.07-.134.139-.336.139-.537a.749.749 0 00-.208-.536c-.139-.135-.277-.269-.485-.336-.207-.067-.346-.201-.623-.335-.208-.067-.415-.201-.623-.335a1.594 1.594 0 01-.484-.47 1.32 1.32 0 01-.208-.738c0-.335.069-.67.207-.939.139-.268.347-.47.554-.604a2.6 2.6 0 01.762-.335c.277-.067.623-.134.9-.134s.554 0 .83.067c.278.067.554.134.762.201l-.346.738-.623-.201c-.208-.067-.485-.067-.692-.067-.208 0-.416 0-.623.067a3.418 3.418 0 00-.485.201.822.822 0 00-.346.335c-.07.135-.139.336-.139.537s.07.402.208.537c.138.134.277.268.485.402.207.134.346.201.623.335.207.067.415.202.623.336.208.134.346.268.484.47.139.2.208.402.208.737 0 .335-.07.67-.208.94-.138.267-.346.469-.553.67a2.6 2.6 0 01-.762.335c-.277.067-.623.134-.9.134a4.23 4.23 0 01-.97-.134 4.907 4.907 0 01-.9-.335l.278-.805zm6.022 1.007h-.83l2.285-9.458.83-.134-.83 3.353c.553-.2 1.038-.335 1.523-.335.277 0 .554.067.83.134.277.067.485.201.624.402.207.135.346.403.415.604.138.268.138.537.138.872 0 .201 0 .403-.069.67 0 .202-.069.47-.138.672l-.762 3.152h-.83l.692-2.817.207-.805c.07-.268.07-.537.07-.805s-.07-.47-.139-.603a.693.693 0 00-.346-.403c-.138-.067-.277-.201-.485-.201-.207 0-.346-.067-.553-.067-.277 0-.485 0-.762.067a8.932 8.932 0 00-.692.201l-1.177 5.5z" fill="#fff"/></svg>