<svg width="78" height="80" viewBox="0 0 78 80" fill="none" xmlns="http://www.w3.org/2000/svg"><path fill-rule="evenodd" clip-rule="evenodd" d="M39.748 1.334c-5.18 0-10.151 1.01-14.897 3.03a37.989 37.989 0 00-12.154 8.274c-3.518 3.566-6.262 7.654-8.182 12.264-2.018 4.788-3.018 9.788-3.018 15.032 0 5.228 1 10.245 3.018 15.016 1.92 4.625 4.664 8.714 8.182 12.28a37.988 37.988 0 0012.154 8.274 37.674 37.674 0 0014.897 3.045 37.632 37.632 0 0014.898-3.045 37.999 37.999 0 0012.153-8.274c3.518-3.566 6.263-7.654 8.183-12.28C77 50.18 78 45.162 78 39.934c0-5.244-1-10.244-3.018-15.032-1.92-4.61-4.665-8.698-8.183-12.265a37.989 37.989 0 00-12.154-8.273 37.617 37.617 0 00-14.897-3.03z" fill="#fff"/><path fill-rule="evenodd" clip-rule="evenodd" d="M56.889 13.973c.387-.049.613-.212.71-.44.113-.277.048-.554-.178-.83-1.807-3.095-5.89-5-12.282-5.685-2.664-.293-5.52-.162-8.586.391-3.245.57-6.053 1.482-8.426 2.77-5.907 3.207-9.296 7.458-10.184 12.767-.13.489-.098.832.064 1.043.178.212.469.244.872.113 7.892-2.67 14.01-4.592 18.335-5.765 6.828-1.807 13.38-3.273 19.675-4.364z" fill="#FEBE10"/><path fill-rule="evenodd" clip-rule="evenodd" d="M50.901 4.918a34.755 34.755 0 00-10.863-1.743c-5.31 0-10.313 1.026-14.977 3.094-4.406 1.938-8.264 4.674-11.605 8.192A36.93 36.93 0 005.983 26.14c-1.775 4.38-2.647 8.876-2.647 13.502 0 4.984.92 9.74 2.776 14.299 1.808 4.446 4.342 8.37 7.65 11.792a35.305 35.305 0 0011.492 8.013c4.535 1.987 9.313 2.964 14.35 2.964 8.763 0 16.413-2.672 22.95-8.046 2.566-2.1 4.826-4.544 6.795-7.295 1.663-2.33 2.97-4.692 3.923-7.053l-6.118-3.355c-2.582 5.863-6.165 10.504-10.748 13.908-4.86 3.6-10.363 5.44-16.48 5.538-4.535.065-8.813-.651-12.815-2.166-3.906-1.466-7.344-3.6-10.314-6.416l-3.534 1.53v-5.521c-1.97-2.671-3.454-5.602-4.488-8.844-1.065-3.338-1.597-6.873-1.597-10.586 0-4.772.871-9.283 2.614-13.55a32.848 32.848 0 017.263-10.945c3.18-3.192 6.877-5.635 11.105-7.361 4.39-1.775 9.103-2.671 14.122-2.671 2.696 0 5.585.357 8.619 1.042z" fill="#0061A9"/><path fill-rule="evenodd" clip-rule="evenodd" d="M69.107 30.162c-.242-.521-.63-.88-1.178-1.108a9.574 9.574 0 00-2.857-.603c-1.05-.065-2.099 0-3.164.228-2.033.407-3.776 1.287-5.213 2.639-2.082 1.954-3.131 4.609-3.131 7.996 0 2.834.92 4.935 2.76 6.303 1.566 1.157 3.486 1.612 5.747 1.351 2.55-.292 4.535-1.156 5.971-2.589.823-.814 1.227-1.938 1.243-3.37.033-.977.033-3.046 0-6.173l-7.634 1.678v1.79c.016 1.304.613 1.841 1.824 1.597l.969-.244.016 1.466c.016.13-.033.277-.178.44-.275.357-.824.602-1.631.764-1.227.18-2.147-.065-2.776-.78-.597-.669-.904-1.728-.92-3.144.032-1.417.404-2.59 1.13-3.502a4.491 4.491 0 012.599-1.628c.952-.228 1.856-.293 2.711-.18l1.582.31c.613.098 1.113-.048 1.549-.39.371-.326.63-.767.743-1.303a2.521 2.521 0 00-.162-1.548zM48.463 32.98c-.45.602-.677 1.416-.677 2.491l-.017 5.44c-2.033-2.574-3.728-4.545-5.05-5.896-.728-.717-1.664-.863-2.842-.44l-2.614.798v18.16l2.534-.88c.935-.326 1.597-.799 2-1.385.388-.586.566-1.367.566-2.361l-.033-6.27 5.439 6.334c.808.831 1.808 1.076 3.018.718a2.58 2.58 0 001.356-.944c.387-.49.581-1.06.596-1.711V31.302c-.936.195-1.79.407-2.582.635-.74.212-1.306.554-1.694 1.042zM32.63 36.758c-.92.341-1.597.814-2.017 1.383-.484.685-.71 1.646-.71 2.916l-.016 15.082 2.938-1.059c1.017-.391 1.726-.863 2.146-1.466.42-.586.63-1.417.63-2.476l.016-15.358a46.943 46.943 0 00-2.986.978zm-13.153 5.097l-5.44 2.28-.032 18.096 3.842-1.63c.516-.13.92-.455 1.21-.928.29-.456.42-1.042.404-1.775v-5.75l4.293 4.61c.532.537 1.162.863 1.888.944.84.115 1.614-.13 2.324-.7.645-.538.984-1.221 1.016-2.052.016-.765-.177-1.385-.613-1.873l-3.922-3.958 4.02-6.4c.37-.619.468-1.254.29-1.89-.194-.667-.63-1.156-1.292-1.449-.694-.325-1.388-.358-2.033-.114-.565.212-1 .554-1.307 1.042l-4.633 7.948-.015-6.4z" fill="#ED1C2E"/><path fill-rule="evenodd" clip-rule="evenodd" d="M63.86 48.419c-.192-.212-.531-.26-.999-.13-5.39 1.27-11.573 3.013-18.561 5.227-7.505 2.378-13.59 4.577-18.238 6.597l-.469.228a.652.652 0 00-.258.325c-.145.31-.064.62.243.946.532.65 1.42 1.286 2.679 1.904 1.356.652 2.905 1.19 4.68 1.597 4.326.96 8.667.912 13.025-.147 6.182-1.497 10.975-4.331 14.381-8.501a20.992 20.992 0 002.76-4.43c.436-.945.742-1.792.92-2.541.097-.505.049-.863-.162-1.075z" fill="#FEBE10"/><path fill-rule="evenodd" clip-rule="evenodd" d="M18.524 28.55c-.855-.457-1.953-.457-3.293.048-.678.244-2.017.782-4.034 1.613l.016 13.192 4.81-2.07c1.323-.553 2.308-1.172 2.953-1.84.807-.847 1.194-1.84 1.178-3.013-.016-.651-.226-1.205-.662-1.66a2.541 2.541 0 00-1.501-.815c1.146-.928 1.71-2.02 1.71-3.29 0-1.01-.402-1.726-1.177-2.166zm-3.39 5.211l-.613.26v-2.784c.533-.293.985-.358 1.34-.245.339.13.516.424.5.913 0 .83-.42 1.45-1.226 1.856zm.953 2.1c.372.196.565.538.565 1.06.032.912-.436 1.58-1.356 2.003l-.742.342v-3.209c.629-.325 1.146-.39 1.533-.195zM29.305 25.34c0-.536-.16-.895-.5-1.09-.29-.18-.694-.196-1.162-.049-.5.146-1.033.325-1.614.554v8.192c-.032 1.221-.403 1.906-1.145 2.101-.371.082-.662.017-.856-.195-.177-.196-.273-.521-.273-.944l-.018-6.711c0-.538-.161-.912-.484-1.108-.307-.195-.694-.195-1.178-.049l-1.646.602v8.128c-.016 1.368.403 2.361 1.258 2.948.873.619 2.018.716 3.422.293 1.372-.408 2.372-1.026 3.018-1.808.775-.945 1.162-2.264 1.178-3.974v-6.89zm24.065-3.468v-1.84l2.792-.587c.662-.13 1-.602 1-1.384V16.66c-2.307.39-4.664.88-7.052 1.433l-.048 12.036a249.7 249.7 0 016.052-1.4c.775-.18 1.178-.701 1.178-1.564v-1.401l-3.922.863.016-2.329 2.453-.52c.678-.164 1.017-.587 1.017-1.304l-.015-1.335-3.47.733zM30.21 35.78l1.953-.667c.888-.358 1.323-.944 1.34-1.791l.015-3.226 2.809 2.949c.42.407.888.586 1.436.554.436-.05.791-.196 1.082-.473.355-.326.532-.75.532-1.254-.016-.49-.177-.896-.5-1.222l-2.13-2.052c1.372-1.14 2.05-2.46 2.066-3.925 0-1.027-.387-1.792-1.178-2.28-.807-.505-1.84-.62-3.083-.326-1.065.244-2.518.7-4.341 1.335v12.379h-.001zm3.292-7.54v-3.436c1.259-.473 1.905-.196 1.92.83.017 1.075-.629 1.938-1.92 2.606zm31.812-11.808c-.774-.603-1.775-.83-2.97-.667l-4.325.732v11.858l1.791-.343c.92-.212 1.388-.765 1.404-1.694V23.42l2.76 3.273c.275.31.614.488.985.554.436.08.856 0 1.258-.26.437-.278.679-.668.727-1.157.049-.489-.08-.912-.403-1.254l-2.13-2.41c1.323-.896 2.001-2.02 2.001-3.372.015-1.01-.355-1.776-1.098-2.362zm-4.1 5.147l-.016-3.209c1.244-.26 1.889.05 1.905.945 0 1.025-.63 1.775-1.889 2.264zm-11.975-.912c.016-.57-.226-1.01-.727-1.32-.549-.31-1.323-.44-2.356-.423-2.196.081-3.922.847-5.181 2.312-1.162 1.352-1.743 3.063-1.743 5.147 0 1.971.58 3.437 1.726 4.398 1.065.895 2.454 1.189 4.116.879 1.42-.277 2.534-.782 3.34-1.515.598-.52.889-1.221.889-2.085v-4.674l-4.891 1.108v1.367c0 .327.113.57.322.75.21.179.469.244.775.179l.71-.163.016 1.352c0 .277-.162.489-.5.652-.324.163-.71.244-1.13.228-1.21-.017-1.808-.913-1.84-2.688.016-1.107.274-2.003.742-2.72.468-.667 1.065-1.09 1.824-1.302.484-.114 1.114-.13 1.904-.033.615.114 1.099.016 1.453-.244.357-.26.534-.668.55-1.205z" fill="#ED1C2E"/><path fill-rule="evenodd" clip-rule="evenodd" d="M21.93 21.22c.16-.114.242-.31.274-.554.549-2.101 1.597-4.17 3.147-6.173 1.452-1.873 3.034-3.339 4.761-4.397-2.47 1.091-4.648 2.834-6.553 5.228-.774.994-1.403 1.97-1.888 2.948-.452.929-.71 1.694-.775 2.33 0 .227.049.406.162.553a.62.62 0 00.435.211.55.55 0 00.436-.146zm30.505-9.17c.015-.537-.34-1.09-1.034-1.66-.661-.538-1.582-1.026-2.727-1.482-1.195-.44-2.454-.75-3.809-.961-1.453-.211-2.873-.277-4.245-.163 2.711.195 4.972.733 6.779 1.661.791.391 1.404.814 1.84 1.27.419.44.646.864.646 1.254.015.49-.178.945-.566 1.336-.355.407-.84.7-1.404.88l1.904-.457c.646-.146 1.114-.277 1.421-.407.791-.277 1.178-.7 1.195-1.27zm8.118 40.521c.162-.341.177-.65.065-.911-.08-.244-.258-.407-.517-.489a.915.915 0 00-.742.082c-.291.163-.484.439-.614.83a19.77 19.77 0 01-3.195 5.488c-1.615 2.003-3.568 3.649-5.843 4.951 2.308-.912 4.374-2.165 6.181-3.762 2.018-1.774 3.567-3.826 4.665-6.189z" fill="#fff"/><path fill-rule="evenodd" clip-rule="evenodd" d="M72.367 51.09h-1.21v.196h.468v.944h.307v-.944h.435v-.196zm.468.212l.275.928h.306l.275-.928v.928h.307v-1.14h-.452l-.275.88-.29-.88h-.452v1.14h.306v-.928z" fill="#ED1C2E"/></svg>