<svg width="60" height="60" viewBox="0 0 60 60" fill="none" xmlns="http://www.w3.org/2000/svg">
<g clip-path="url(#clip0)">
<path d="M19.3368 19.3158L37.6057 1.1362C38.9685 -0.219938 40.5154 -0.476505 42.1729 1.1362L59.1527 18.033C60.3681 19.2425 60.2576 21.0751 59.1527 22.1747L22.2097 58.9004C20.8838 60.2199 19.1526 60.4398 17.6057 58.9004L0.99426 42.3702C-0.331707 41.0507 -0.22121 38.9615 0.99426 37.752L19.3368 19.3158Z" fill="white"/>
<path d="M19.6317 21.1851L38.7477 40.2077L21.3628 57.5076C20.2946 58.5705 19.1897 58.6072 18.0847 57.5076L2.17309 41.6738C1.17861 40.6841 1.25228 39.5846 2.17309 38.6683L19.6317 21.1851Z" fill="#006491"/>
<path d="M39.9632 39.0715L20.8472 20.0489L38.2321 2.74892C39.3002 1.686 40.4052 1.64935 41.5102 2.74892L57.4218 18.5828C58.4162 19.5724 58.3426 20.672 57.4218 21.5883L39.9632 39.0715Z" fill="#E31837"/>
<path d="M39.8527 24.7771C42.4565 24.7771 44.5673 22.6766 44.5673 20.0855C44.5673 17.4945 42.4565 15.394 39.8527 15.394C37.249 15.394 35.1382 17.4945 35.1382 20.0855C35.1382 22.6766 37.249 24.7771 39.8527 24.7771Z" fill="white"/>
<path d="M26.6298 44.8992C29.2336 44.8992 31.3444 42.7987 31.3444 40.2077C31.3444 37.6166 29.2336 35.5162 26.6298 35.5162C24.0261 35.5162 21.9153 37.6166 21.9153 40.2077C21.9153 42.7987 24.0261 44.8992 26.6298 44.8992Z" fill="white"/>
<path d="M12.8544 44.8992C15.4582 44.8992 17.569 42.7987 17.569 40.2077C17.569 37.6166 15.4582 35.5162 12.8544 35.5162C10.2507 35.5162 8.13989 37.6166 8.13989 40.2077C8.13989 42.7987 10.2507 44.8992 12.8544 44.8992Z" fill="white"/>
</g>
<defs>
<clipPath id="clip0">
<rect width="60" height="60" fill="white"/>
</clipPath>
</defs>
</svg>
