<svg width="60" height="60" viewBox="0 0 60 60" fill="none" xmlns="http://www.w3.org/2000/svg"><g clip-path="url(#clip0)"><path d="M19.337 19.316l18.269-18.18c1.362-1.356 2.91-1.613 4.567 0l16.98 16.897c1.215 1.21 1.105 3.042 0 4.142L22.21 58.9c-1.326 1.32-3.057 1.54-4.604 0L.994 42.37c-1.326-1.32-1.215-3.408 0-4.618l18.343-18.436z" fill="#fff"/><path d="M19.632 21.185l19.116 19.023-17.385 17.3c-1.068 1.063-2.173 1.1-3.278 0L2.173 41.674c-.994-.99-.92-2.09 0-3.006l17.459-17.483z" fill="#006491"/><path d="M39.963 39.072L20.847 20.049l17.385-17.3c1.068-1.063 2.173-1.1 3.278 0l15.912 15.834c.994.99.92 2.089 0 3.005L39.963 39.071z" fill="#E31837"/><path d="M39.853 24.777c2.603 0 4.714-2.1 4.714-4.692 0-2.59-2.11-4.691-4.714-4.691-2.604 0-4.715 2.1-4.715 4.691 0 2.592 2.111 4.692 4.715 4.692zM26.63 44.9c2.604 0 4.714-2.101 4.714-4.692s-2.11-4.692-4.714-4.692c-2.604 0-4.715 2.1-4.715 4.692 0 2.59 2.111 4.691 4.715 4.691zm-13.776 0c2.604 0 4.715-2.101 4.715-4.692s-2.11-4.692-4.715-4.692c-2.603 0-4.714 2.1-4.714 4.692 0 2.59 2.11 4.691 4.714 4.691z" fill="#fff"/></g><defs><clipPath id="clip0"><path fill="#fff" d="M0 0h60v60H0z"/></clipPath></defs></svg>