<svg width="141" height="25" viewBox="0 0 141 25" fill="none" xmlns="http://www.w3.org/2000/svg"><path fill-rule="evenodd" clip-rule="evenodd" d="M56.957 13.818c-.087.13-.044.28-.044.41V20.5c0 .584-.066 1.146-.241 1.709-.527 1.794-2.063 2.875-3.973 2.746-2.35-.152-3.688-1.557-3.842-4-.022-.238-.022-.498-.022-.736V4.088c0-1.688.636-3.006 2.261-3.655 1.668-.67 3.249-.433 4.61.778.746.649 1.273 1.514 1.866 2.292 1.822 2.443 3.753 4.822 5.466 7.352.176.26.33.519.593.757V4.498c0-.93.153-1.817.636-2.617.878-1.47 2.261-1.946 3.885-1.773 1.91.173 3.183 1.45 3.447 3.352.066.432.087.865.087 1.297v16.174c0 1.665-.592 2.984-2.173 3.676-1.69.714-3.315.454-4.698-.778-.856-.757-1.492-1.73-2.217-2.638-1.91-2.4-3.951-4.714-5.575-7.33 0-.022-.023-.022-.067-.044h.001zm59.205.043v.454c0 2.27-.022 4.52-.044 6.79 0 .648-.198 1.254-.483 1.816-.681 1.362-2.13 2.14-3.732 2.01-2.283-.172-3.644-1.578-3.798-3.87l-.022-.389c0-5.665-.022-11.33 0-16.995 0-1.45.703-2.552 2.02-3.179 1.493-.692 2.942-.584 4.346.303.418.26.769.605 1.054.973 2.217 2.94 4.5 5.816 6.608 8.844.241.346.461.692.746 1.146V4.369c0-1.082.242-2.12.966-2.984 1.076-1.276 2.525-1.492 4.061-1.211 1.449.28 2.349 1.232 2.766 2.595.198.648.242 1.297.242 1.967v16.218c0 1.643-.615 2.962-2.174 3.632-1.624.692-3.183.476-4.566-.648a4.08 4.08 0 01-.615-.606c-2.195-2.79-4.544-5.47-6.585-8.368-.264-.367-.505-.735-.747-1.103.022-.022 0-.022-.044 0h.001zm-18.857-1.384c0-2.833-.022-5.644 0-8.476.022-1.644.724-2.92 2.283-3.568 1.603-.67 3.161-.497 4.5.67a3.452 3.452 0 011.229 2.682c.022 5.816.044 11.611 0 17.428-.022 2.184-1.844 3.806-4.039 3.74-2.305-.064-3.951-1.643-3.973-3.87-.022-2.876 0-5.73 0-8.606zm-51.192-2.249c-.022 1.557.066 3.503-.044 5.428-.263 4.778-3.885 8.562-8.715 9.168-2.151.26-4.237.151-6.256-.67-3.6-1.45-5.576-4.152-6.125-7.893-.066-.476-.087-.973-.11-1.47 0-3.568-.021-7.114 0-10.682.023-2.379 1.713-4.065 4.04-4.044 2.348.022 4.017 1.709 4.017 4.13v10.077c0 1.124.395 2.032 1.449 2.551 1.646.822 3.49-.324 3.666-2.205.022-.238.022-.497.022-.735V4.066c0-2.141 1.47-3.763 3.6-3.979 2.107-.216 3.907 1.06 4.346 3.114.066.324.088.649.088.995.022 1.88.022 3.762.022 6.033zm36.396-2.703c1.45-1.838 2.942-3.589 4.347-5.405.812-1.038 1.778-1.773 3.139-1.925 2.37-.238 4.654 1.925 4.478 4.26-.088 1.081-.527 1.99-1.207 2.811a441.683 441.683 0 01-4.193 4.822c-.197.238-.197.367 0 .584 1.515 1.643 2.986 3.33 4.478 4.973.813.908 1.274 1.925 1.23 3.135-.088 2.595-2.744 4.606-5.181 3.892-.834-.237-1.515-.735-2.063-1.405-1.581-1.903-3.205-3.784-4.742-5.73a9.662 9.662 0 00-.22-.281c-.153.086-.087.216-.087.302 0 1.146.022 2.27-.022 3.417-.066 2.313-1.734 3.935-4.017 3.914-2.305 0-4.017-1.622-4.017-3.914-.022-5.687-.022-11.396 0-17.083C74.454 1.6 76.188-.02 78.47 0c2.283.022 3.93 1.6 3.995 3.892.066 1.255.044 2.444.044 3.633zM7.895.563c1.427.021 3.05-.108 4.654.194 4.456.822 7.88 3.028 9.439 7.33 1.602 4.433 1.076 8.65-2.107 12.326-1.954 2.27-4.588 3.46-7.53 3.87-2.722.39-5.466.13-8.188.173-.132 0-.263-.043-.395-.065-2.151-.367-3.644-2.097-3.644-4.238V4.887c0-2.4 1.866-4.281 4.324-4.324 1.076-.022 2.174 0 3.447 0zM8.18 12.52v3.936c0 .195-.022.367.285.367.857-.021 1.69.044 2.547-.065 2.239-.259 3.732-1.924 3.754-4.216.022-2.25-1.471-3.979-3.71-4.26-.834-.108-1.669-.022-2.503-.065-.307-.022-.395.086-.395.39.022 1.297.022 2.616.022 3.913z" fill="#FE6D01"/><path fill-rule="evenodd" clip-rule="evenodd" d="M133.349 5.795c-.022-.973 0-1.924.22-2.875.439-1.99 2.129-3.114 4.215-2.79 1.997.303 3.27 1.925 3.073 3.914-.176 1.643-.637 3.222-1.295 4.736-.396.886-.988 1.6-1.954 1.924-1.581.519-3.227-.238-3.82-1.795-.395-.994-.417-2.054-.439-3.114z" fill="#F40290"/></svg>