<svg width="60" height="60" viewBox="0 0 60 60" fill="none" xmlns="http://www.w3.org/2000/svg"><path d="M30 0H0v60h60V0H30z" fill="#002A5F"/><path d="M43.109 15.498h1.243c1.176-.001 1.722 1.095 1.722 1.924v12.903c0 .93-.546 1.792-1.6 1.786H43.11V15.498zm1.25-.478h-4.945v.478h1.309v29.004h-1.309v.513h5.58v-.513h-1.886V32.7h1.626c2.365 0 3.712-1.246 3.712-2.92V18.19c0-1.671-1.162-3.173-4.086-3.17zm-26.175.385c0 .478-.279.442-.502.285-.804-.564-1.789-.97-2.668-.963-1.435.01-3.49.705-3.496 3.729V40.69c.021 3.862 1.88 4.583 3.712 4.603 1.426.013 2.105-.74 2.682-.991.304-.133.637.174.637.745h.593V30.902h1.188v-.476h-5.02v.476h1.456v12.167c0 .986-.67 1.733-1.514 1.735-.814 0-1.437-.773-1.437-1.735V17.572c-.001-.694.122-2.305 1.194-2.298 2.063.016 3.158 6.05 3.173 9.17h.592v-9.44h-.589l-.002.4zm9.111 16.747l1.445-12.943 1.476 12.943h-2.921zm2.981.529l1.345 11.814h-1.322v.513h4.966v-.513h-1.308l-3.3-29.482h-2.113L25.48 42.858c-.18 1-.274 1.617-1.712 1.638v.512h3.724v-.512c-1.054 0-1.531-.673-1.428-1.39l1.17-10.425h3.042z" fill="#fff"/></svg>