<svg width="24" height="24" viewBox="0 0 24 24" fill="none" xmlns="http://www.w3.org/2000/svg"><path fill-rule="evenodd" clip-rule="evenodd" d="M2.386 9.22a1 1 0 011.406.154c1.466 1.83 4.095 4.075 8.215 4.075 4.119 0 6.748-2.246 8.214-4.075a1 1 0 111.56 1.252c-1.684 2.1-4.83 4.823-9.774 4.823-4.945 0-8.091-2.723-9.775-4.823a1 1 0 01.154-1.406z" fill="#B8B9D0"/><path fill-rule="evenodd" clip-rule="evenodd" d="M18.362 11.25a1 1 0 011.365.37l2.137 3.73a1 1 0 11-1.735.994l-2.137-3.73a1 1 0 01.37-1.365zm-4.077 1.956a1 1 0 011.157.813l.667 3.809a1 1 0 01-1.97.344l-.667-3.809a1 1 0 01.813-1.157zm-4.567-.002a1 1 0 01.813 1.157l-.667 3.81a1 1 0 11-1.97-.345l.667-3.81a1 1 0 011.157-.812zm-4.073-1.957a1 1 0 01.37 1.364L3.868 16.36a1 1 0 11-1.736-.994l2.148-3.748a1 1 0 011.365-.37z" fill="#B8B9D0"/></svg>