<svg viewBox="0 0 190 44" fill="none" xmlns="http://www.w3.org/2000/svg"><path d="M24.758 10.026c1.799.072 6.117-.36 7.484.505 1.656 1.01 2.088 3.679.936 5.266-1.223 1.73-3.814 1.442-6.045 1.442h-7.125a1062.03 1062.03 0 00-6.046 9.377c4.318.145 9.14 0 13.387 0 1.799 0 4.534-.216 5.397.866 1.296 1.37 1.368 3.246.432 4.833-1.008 1.73-2.95 1.587-4.75 1.587-3.742 0-17.417.072-19.216.072-2.015 3.03-3.958 6.059-5.901 9.088 5.47 0 10.867.073 15.977.073 4.03 0 11.875.432 15.401-.722 6.046-2.02 9.572-8.944 8.205-14.931-.72-3.39-1.008-2.885-2.591-5.554 1.367-2.453 2.303-3.03 2.735-6.203 1.08-7.43-4.246-14.57-12.307-14.86-1.08 1.587-4.822 7.358-5.973 9.161z" fill="url(#paint0_linear)"/><path d="M3.31 43.062c1.944-3.03 3.887-6.059 5.902-9.088v-7.285h4.75c.504-.794 5.83-9.017 6.046-9.378L9.212 17.24l.144-7.14 15.402-.073C25.98 8.151 29.65 2.452 30.73.793H0v42.27h3.31z" fill="url(#paint1_linear)"/><path d="M87.731 40.033h2.879v1.442h-4.678V34.19h1.727v5.843h.072zm5.326-5.987v1.587h-1.584v-1.587h1.584zm0 2.02v5.41h-1.584v-5.41h1.584zm2.951 1.226v4.183h-1.584v-4.183h-.648v-1.227h.648c0-.576.072-.937.144-1.226.072-.288.288-.505.576-.649.288-.216.72-.288 1.223-.288.216 0 .432 0 .72.072V35.2h-.576c-.215 0-.36.072-.431.144-.072.145-.072.289-.072.577v.145h1.007v1.226h-1.007zm6.621 1.731h-3.455v.216c0 .361.072.65.288.866.216.216.432.288.72.288.504 0 .863-.288.935-.865l1.44.072c-.432 1.226-1.224 1.875-2.447 1.875-.504 0-1.008-.144-1.368-.288-.36-.216-.72-.505-.935-.938a3.36 3.36 0 01-.36-1.515c0-.865.216-1.587.72-2.091a2.61 2.61 0 011.871-.794c.72 0 1.295.217 1.799.722.576.649.792 1.442.792 2.452zm-3.455-.866h1.943c-.072-.72-.359-1.082-.935-1.082-.648-.072-.936.289-1.008 1.082zm14.394-2.091l-1.655 5.41h-1.44l-.863-3.463-.864 3.462h-1.367l-1.584-5.41h1.656l.863 3.319.864-3.318h1.439l.792 3.318.936-3.318h1.223zm2.303-2.02v1.587h-1.583v-1.587h1.583zm0 2.02v5.41h-1.583v-5.41h1.583zm3.095 1.226V39.6c0 .288.072.505.144.577.072.072.288.144.576.144h.503v1.154c-.431.072-.791.145-1.007.145-.648 0-1.152-.145-1.44-.361-.287-.288-.431-.721-.431-1.37v-2.525h-.864v-1.298h.936l.144-1.587 1.367-.072v1.659h1.151v1.226h-1.079zm3.67-3.102v2.597c.288-.577.792-.866 1.44-.866.36 0 .647.072.935.217.288.144.432.36.576.649.072.216.144.65.144 1.082v3.606h-1.583v-3.03c0-.36 0-.648-.072-.72 0-.145-.072-.217-.216-.361-.144-.144-.216-.144-.36-.144a.817.817 0 00-.576.216c-.216.144-.288.505-.288 1.01v3.03h-1.583V34.19h1.583zm11.875 5.266c-.072.649-.288 1.154-.791 1.587-.432.36-1.008.577-1.728.577-.791 0-1.367-.217-1.871-.794-.504-.505-.719-1.154-.719-2.02 0-.865.215-1.514.719-2.091a2.656 2.656 0 011.943-.794c.648 0 1.224.217 1.656.577.432.361.647.866.719 1.515l-1.511.072c-.072-.649-.36-1.01-.864-1.01-.647 0-.935.505-.935 1.587 0 .722.072 1.154.288 1.299.144.216.36.288.647.288.504 0 .792-.288.864-.938l1.583.145zm2.375 2.019h-1.583v-5.41h1.439v1.01c.216-.72.648-1.154 1.152-1.154h.288v1.587c-.36 0-.576.072-.792.145-.216.072-.36.288-.432.504-.144.289-.144.577-.144 1.082v2.236h.072zm6.694-5.409l-1.728 5.193c-.216.577-.36 1.01-.504 1.226-.143.217-.359.433-.575.65-.216.144-.576.216-1.08.216-.216 0-.504 0-.791-.072v-1.227c.287.073.575.073.791.073.288 0 .504-.073.648-.145.144-.072.216-.288.216-.505l-1.943-5.41h1.655l1.008 3.247 1.007-3.246h1.296zm.719 7.284v-7.284h1.44v.793c.288-.577.719-.938 1.439-.938.576 0 1.08.217 1.439.722.36.505.576 1.154.576 2.02 0 .937-.216 1.658-.576 2.163-.359.505-.863.722-1.439.722-.576 0-1.08-.217-1.295-.722v2.453h-1.584v.072zm1.512-4.255c0 .36 0 .65.072.794.072.144.144.288.287.36.144.145.288.145.504.145.216 0 .432-.145.576-.361.144-.217.288-.721.288-1.443 0-1.082-.288-1.587-.864-1.587-.216 0-.432.072-.576.289a1.615 1.615 0 00-.287.938v.865zm6.261-1.803V39.6c0 .288.072.505.144.577.072.072.288.144.576.144h.503v1.154c-.431.072-.791.145-1.007.145-.648 0-1.152-.145-1.44-.361-.287-.288-.431-.721-.431-1.37v-2.525h-.864v-1.298h.936l.144-1.587 1.367-.072v1.659h1.152v1.226h-1.08zm4.246-1.299c.792 0 1.44.289 1.943.794.432.577.72 1.226.72 2.02 0 .793-.216 1.442-.72 2.02-.503.504-1.151.793-1.943.793-.791 0-1.367-.289-1.871-.794-.432-.505-.72-1.226-.72-2.02 0-.576.072-1.081.288-1.442.216-.36.504-.721.864-.938.432-.36.863-.433 1.439-.433zm.072 1.01a.756.756 0 00-.648.361c-.144.216-.215.721-.215 1.37 0 .65.071 1.082.215 1.37.144.29.36.434.648.434a.756.756 0 00.648-.36c.144-.217.216-.722.216-1.371 0-.722-.072-1.227-.216-1.443a.756.756 0 00-.648-.36zM78.519 13.921a7.696 7.696 0 00-2.375-2.452c.504-.433.864-.938 1.151-1.515.432-.793.648-1.803.648-2.813 0-2.092-.647-3.75-2.015-4.833C74.633 1.226 72.761.65 70.242.65h-14.61v24.957h15.402c2.591 0 4.678-.72 6.261-2.091 1.584-1.37 2.376-3.318 2.376-5.627-.145-1.442-.504-2.813-1.152-3.967zm-6.981 7.863H59.59V13.92h11.947c1.223 0 2.159.361 2.807 1.01.72.721 1.007 1.66 1.007 2.885 0 1.227-.36 2.236-1.007 2.886-.648.72-1.584 1.082-2.807 1.082zM59.59 4.472h10.867c1.152 0 2.016.217 2.52.721.503.433.79 1.155.79 2.164 0 .938-.287 1.587-.79 2.02-.576.505-1.44.721-2.52.721H59.591V4.472zm43.543 17.384v3.75H83.989V6.06h18.352v3.75H87.947v3.535h9.5v3.751h-9.5v4.76h15.186zm7.556-17.384v5.915h9.572v3.823h-9.572v11.396h-4.03V.65h19.792v3.823h-15.762z" fill="#2B2A29"/><path d="M139.621 17.311c1.152-.288 2.087-.937 2.807-1.803.936-1.082 1.367-2.308 1.367-3.75 0-1.804-.575-3.174-1.799-4.184-1.151-1.01-2.735-1.515-4.75-1.515h-13.242v19.548h3.958v-8.08h7.197l5.254 8.08h4.39l-5.182-8.296zM128.034 9.81h9.284c.864 0 1.512.144 1.943.505.36.288.576.793.576 1.442 0 .65-.216 1.082-.576 1.443-.431.36-1.079.505-1.943.505h-9.284V9.81zm39.152 12.046v3.75h-19.144V6.06h18.352v3.75H152v3.535h9.428v3.751H152v4.76h15.186zm22.238 0v3.75h-19.216V6.06h18.353v3.75h-14.394v3.535h9.5v3.751h-9.5v4.76h15.257z" fill="#2B2A29"/><defs><linearGradient id="paint0_linear" x1="35.27" y1="37.652" x2="7.041" y2="9.735" gradientUnits="userSpaceOnUse"><stop stop-color="#7742CC"/><stop offset="1" stop-color="#338FFF"/></linearGradient><linearGradient id="paint1_linear" x1="24.624" y1="36.181" x2="2.18" y2="1.785" gradientUnits="userSpaceOnUse"><stop stop-color="#57D5FF"/><stop offset="1" stop-color="#67F581"/></linearGradient></defs></svg>