<svg width="68" height="76" viewBox="0 0 68 76" fill="none" xmlns="http://www.w3.org/2000/svg"><g clip-path="url(#clip0)"><path d="M34 54c11.046 0 20-9.178 20-20.5S45.046 13 34 13s-20 9.178-20 20.5S22.954 54 34 54z" fill="#2A2929"/><path d="M58.042 9.845C51.62 3.496 43.082 0 34 0S16.38 3.496 9.958 9.845C3.537 16.193 0 24.635 0 33.612c0 15.84 11.201 29.515 26.762 32.847L34 76l7.238-9.541C56.8 63.126 68 49.452 68 33.612c0-8.978-3.537-17.419-9.958-23.767zM34 8.775c13.77 0 24.974 11.075 24.974 24.689 0 13.613-11.203 24.689-24.974 24.689-13.77 0-24.973-11.076-24.973-24.69C9.027 19.85 20.23 8.776 34 8.776z" fill="#2A2929"/><path d="M35.612 27.57c.916.036 3.116-.178 3.813.25.843.5 1.063 1.822.476 2.607-.623.857-1.943.714-3.08.714h-3.629a524.887 524.887 0 00-3.08 4.642c2.2.072 4.657 0 6.82 0 .916 0 2.31-.107 2.75.429.66.678.696 1.607.22 2.392-.514.857-1.504.786-2.42.786-1.907 0-8.873.036-9.79.036-1.026 1.5-2.016 3-3.006 4.499 2.787 0 5.536.036 8.14.036 2.053 0 6.049.214 7.845-.358 3.08-1 4.876-4.427 4.18-7.391-.367-1.678-.514-1.428-1.32-2.75.696-1.214 1.173-1.5 1.393-3.07.55-3.678-2.163-7.213-6.27-7.356-.55.785-2.456 3.642-3.042 4.535z" fill="url(#paint0_linear)"/><path d="M24.686 43.925c.99-1.5 1.98-3 3.007-4.5V35.82h2.42c.256-.393 2.969-4.463 3.079-4.642l-5.5-.035.074-3.536 7.846-.035c.623-.929 2.493-3.75 3.043-4.571H23v20.925h1.686z" fill="url(#paint1_linear)"/></g><defs><linearGradient id="paint0_linear" x1="40.967" y1="41.246" x2="26.994" y2="27.027" gradientUnits="userSpaceOnUse"><stop stop-color="#7742CC"/><stop offset="1" stop-color="#338FFF"/></linearGradient><linearGradient id="paint1_linear" x1="35.544" y1="40.518" x2="24.564" y2="23.203" gradientUnits="userSpaceOnUse"><stop stop-color="#57D5FF"/><stop offset="1" stop-color="#67F581"/></linearGradient><clipPath id="clip0"><path fill="#fff" d="M0 0h68v76H0z"/></clipPath></defs></svg>