<svg width="140" height="138" viewBox="0 0 140 138" fill="none" xmlns="http://www.w3.org/2000/svg"><path d="M122.566 118.586c-2.817 2.967-5.487 4.885-7.596 6.398-24.773 17.782-54.084 12.602-60.315 11.335-9.202-1.868-26.98-5.48-39.837-20.611-19.449-22.883-16.42-58.936-1.33-82.736C16.245 28.62 30.823 4.455 60.453.582c17.931-2.346 38.832 2.385 53.97 15.071 31.769 26.63 29.508 80.434 8.143 102.933z" fill="url(#paint0_linear)"/><path d="M41.98 68.197s.315-13.352-5.828-16.92c-6.147-3.573-17.832-5.806-18.266-24.973-.256-11.223-.532-16.127-.719-18.27a1.267 1.267 0 011.493-1.356c5.823 1.1 24.729 5.614 28.69 18.522 4.699 15.308-5.37 42.997-5.37 42.997z" fill="#91B3FA"/><path d="M23.158 12.01c6.389 5.703 13.778 15.792 17.714 25.88.507 1.662 1.985 5.2 2.626 11.484.571 5.24.29 10.78-.41 14.441a.426.426 0 01-.497.34c-.399-.074-.345-.502-.34-.493.793-6.264.463-14.056-1.354-21.089-2.326-8.635-7.508-17.009-12.872-24.11l-.552-.7c-4.153-5.338-5.03-5.378-4.64-5.752a.247.247 0 01.325 0z" fill="#BDD0FB"/><path d="M51.857 93.865c.832.409-7.872-10.543-10.596-27.738-1.286-8.103-1.3-18.256-5.916-22.17-3.843-3.257-16.907-1.202-21.183-.418a.644.644 0 00-.3 1.124c2.05 1.725 6.438 5.786 7.581 9.882 1.508 5.396 6.636 8.831 11.227 9.758 4.59.932 7.148 1.829 9.384 9.177 2.236 7.349 7.443 19.221 9.803 20.385z" fill="#BDD0FB"/><path d="M20.177 45.815c5.453.227 11.31 2.72 14.28 7.388l.282.444c.645 1.045 4.32 8.472 6.36 14.628a.149.149 0 01-.094.187c-.128.044-.197-.099-.183-.089-1.418-3.48-3.463-7.89-5.083-11.188-1.744-3.597-2.96-6.037-6.936-8.368-4.424-2.514-8.65-2.775-8.64-2.77a.113.113 0 01-.104-.128c0-.06.054-.104.118-.104z" fill="url(#paint1_linear)"/><path d="M9.64 127.049c0 1.207.99 2.193 2.198 2.193h118.739a2.202 2.202 0 002.197-2.193l.99-68.27c0-1.208-1.424-3.564-4.025-3.387L13.695 52.386a5.521 5.521 0 00-4.054 1.616 5.533 5.533 0 00-1.626 4.047l1.626 69z" fill="url(#paint2_linear)"/><path d="M11.808 124.944c0 1.143.935 2.08 2.078 2.08H127.71a2.087 2.087 0 002.079-2.08l.931-61.977c-.108-3.731-3.379-5.072-5.36-4.993L14.143 54.988a3.873 3.873 0 00-2.848 1.133 3.905 3.905 0 00-1.143 2.849l1.656 65.974z" fill="url(#paint3_linear)"/><path d="M.286 134.915h139.428a.281.281 0 00.281-.281v-5.441a.28.28 0 00-.281-.281H.286a.28.28 0 00-.281.281v5.441c0 .153.128.281.28.281z" fill="url(#paint4_linear)"/><path d="M130.625 69.216l.094-6.21c-.108-3.73-3.379-5.09-5.36-5.012L14.143 55.002a3.868 3.868 0 00-2.848 1.129 3.984 3.984 0 00-1.143 2.883l.257 10.202h120.216zm-48.024 31.578H15.744a.55.55 0 01-.552-.552V72.795a.55.55 0 01.552-.552h66.857a.55.55 0 01.552.552v27.447a.55.55 0 01-.552.552zm44.336 0H87.089a.395.395 0 01-.394-.394V72.642c0-.217.178-.394.394-.394h39.848c.216 0 .394.177.394.394V100.4a.392.392 0 01-.394.394zm-.089 23.524H15.68a.484.484 0 01-.483-.483v-18.408c0-.266.217-.483.483-.483h111.168c.266 0 .482.217.482.483v18.408a.483.483 0 01-.482.483z" fill="#91B3FA"/><path d="M90.28 121.962H18.257a.825.825 0 01-.822-.823v-1.887c0-.454.369-.823.822-.823h72.025c.453 0 .822.369.822.823v1.887a.827.827 0 01-.822.823zm33.533-23.031H90.498a2.026 2.026 0 01-2.02-2.02v-6.112c0-1.114.912-2.02 2.02-2.02h33.315c1.114 0 2.02.911 2.02 2.02v6.111a2.03 2.03 0 01-2.02 2.021zm-.674-11.774h-32.64a2.026 2.026 0 01-2.02-2.02v-8.562c0-1.114.91-2.02 2.02-2.02h32.64c1.113 0 2.019.911 2.019 2.02v8.561c0 1.109-.906 2.02-2.019 2.02zm-34.055 29.581H18.971a2.026 2.026 0 01-2.02-2.021v-6.067c0-1.114.912-2.02 2.02-2.02h70.118c1.113 0 2.02.911 2.02 2.02v6.067a2.03 2.03 0 01-2.025 2.021zm34.728 5.224h-27.95a2.025 2.025 0 01-2.02-2.02v-11.287c0-1.114.911-2.02 2.02-2.02h27.95c1.114 0 2.02.911 2.02 2.02v11.287c0 1.109-.911 2.02-2.02 2.02zM78.015 98.088H20.153a2.026 2.026 0 01-2.02-2.02v-18.97c0-1.114.911-2.021 2.02-2.021h57.862c1.113 0 2.02.912 2.02 2.02v18.97a2.03 2.03 0 01-2.02 2.021z" fill="#BDD0FB"/><path d="M16.576 126.428s-.547.862-.684 3.272a.39.39 0 00.389.414h4.276a.253.253 0 00.24-.331c-.25-.739-1.009-2.547-2.699-3.582l-1.522.227z" fill="url(#paint5_linear)"/><path d="M16.39 124.791l.241 2.026c.02.172.158.315.335.335.232.024.571.044.901-.01a.625.625 0 00.518-.621v-1.956l-1.995.226z" fill="url(#paint6_linear)"/><path d="M27.153 126.201s-.818 1.271-.803 3.016c.005.409.35.739.758.739h6.636c.31 0 .438-.399.182-.577-1.256-.882-3.724-2.532-5.512-3.178h-1.261z" fill="url(#paint7_linear)"/><path d="M26.468 124.013l.517 2.503c.06.281.33.468.61.404.168-.04.37-.109.582-.247a.6.6 0 00.266-.606l-.532-3.035-1.443.981z" fill="url(#paint8_linear)"/><path d="M17.34 89.187s-1.793 1.582-2.128 3.485c-.335 1.902.955 32.824.955 32.824s1.793.301 2.72-.261c0 0 1.098-20.069 1.93-24.707 0 0 4.37 20.789 5.582 24.544 0 0 1.729.212 2.286-.118 0 0-1.143-26.95-2.582-31.74l-8.763-4.027z" fill="url(#paint9_linear)"/><path d="M20.758 99.877a.19.19 0 01-.187-.148l-.744-2.848-1.58-1.015a.197.197 0 01-.06-.271.197.197 0 01.27-.06l1.646 1.055c.04.025.07.069.084.113l.764 2.922a.19.19 0 01-.138.237c-.025.015-.04.015-.055.015z" fill="url(#paint10_linear)"/><path d="M35.029 71.321c-7.547-.626-9.517.937-9.517.937l3.625 5.727s7.414-.148 12.73-4.244c-.996-1.07-1.685-2.257-2.129-3.179a9.948 9.948 0 01-4.709.76z" fill="url(#paint11_linear)"/><path d="M46.847 60.237c-.01-.242-.34-.306-.439-.089l-.96 2.055a2.15 2.15 0 00-.173 1.277l.34 1.197a2.065 2.065 0 01-.419 1.646c-.886 1.11-2.768 3.13-5.453 4.244.444.922 1.133 2.105 2.128 3.179 1.951-1.503 3.616-3.539 4.532-6.294.439-.133.73-.547.715-1.005l-.271-6.21z" fill="url(#paint12_linear)"/><path d="M37.512 74.643c-2.655-2.863-7.72-4.16-10.645-4.692a2.692 2.692 0 00-3.005 1.706c-1.32 3.548-4.907 12.77-5.601 14.356a139.84 139.84 0 01-1.542 3.367.956.956 0 00.443 1.271c2.463 1.188 6.902 2.534 8.7 3.06a.618.618 0 00.788-.596c0-.35.094-.694.276-.99l6.813-11.356c4.246 4.707 7.96 5.141 10.817 4.11a21.77 21.77 0 01-.945-4.46c-4.217-.724-6.099-5.776-6.099-5.776z" fill="url(#paint13_linear)"/><path d="M50.586 79.626l-.764-1.015c-2.463 1.695-4.527 2.094-6.212 1.804a21.45 21.45 0 00.946 4.46c3.764-1.356 6.03-5.249 6.03-5.249z" fill="url(#paint14_linear)"/><path d="M50.05 79.645l4.29.168 3.95-2.208c-.566-.355-3.773.37-3.773.37s-3.35-.508-4.256-.508c-.754 0-.645 1.084-.586 1.449.01.074.02.118.02.118l.354.611z" fill="url(#paint15_linear)"/><path d="M30.897 64.692l-2.261 5.525s2.6 1.8 4.694 1.632l1.128-4.968-3.561-2.189z" fill="url(#paint16_linear)"/><path d="M34.72 60.926c.055.075 1.636 5.806 1.636 5.806l-3.29.838-2.311-5.21c.005-.004 3.098-2.666 3.965-1.434z" fill="url(#paint17_linear)"/><path d="M31.995 63.15l1 2.839c.015.034.03.069.055.103.138.192.65.823 1.266.256.556-.512 1.069-.975 1.546-1.06a.42.42 0 01.478.302c.143.522.449 1.7.552 2.764a.425.425 0 01-.34.454c-.64.123-2.005.34-3.143.261a.423.423 0 01-.354-.242c-.316-.684-1.276-2.764-1.63-3.302-.336-.502-1.159-.493-1.503-.458a.405.405 0 01-.31-.103c-.301-.267-.878-.942-.07-1.75a.424.424 0 00-.01-.606c-.344-.326-.719-.907-.137-1.622.586-.73 1.36-.611 1.837-.438a.423.423 0 00.507-.188c.06-.098.163-.177.345-.162a.42.42 0 00.444-.424c-.01-.468.157-1.055.97-1.311 1.438-.449 2.335.941 2.424 1.976.088 1.035-1.498 1.434-2.429 1.365-.71-.054-1.236.65-1.448.99a.396.396 0 00-.05.356z" fill="url(#paint18_linear)"/><path d="M31.799 66.545s-.232-1.798-.98-1.887c-.75-.089-1.478.527-.735 1.537.927 1.257 1.715.35 1.715.35z" fill="url(#paint19_linear)"/><path d="M127.694 78.444H51.526a5.568 5.568 0 01-5.566-5.569v-49.62a5.574 5.574 0 015.256-5.565l79.109-4.411a5.575 5.575 0 015.871 5.865l-2.94 54.032a5.573 5.573 0 01-5.562 5.268z" fill="url(#paint20_linear)"/><path d="M91.388 48.502l41.635-34.692a5.513 5.513 0 00-2.699-.532l-79.109 4.41a5.539 5.539 0 00-3.507 1.509l31.163 28.995c3.379 3.149 8.945 3.287 12.517.31z" fill="url(#paint21_linear)"/><path opacity=".66" d="M73.423 41.41a.423.423 0 01-.286-.108L49.708 19.906a.426.426 0 01-.03-.597.426.426 0 01.597-.03l23.429 21.395a.426.426 0 01.03.597.412.412 0 01-.311.138zm43.532 35.599c-.635 0-1.3 0-1.99-.005h-.719a.42.42 0 01-.419-.424c0-.231.187-.419.419-.419h.719c8.108.015 12.187.025 14.039-1.892 1.483-1.538 1.661-4.466 1.468-9.675a.419.419 0 11.838-.035c.251 6.945-.374 8.916-1.705 10.291-1.921 2.001-5.61 2.159-12.65 2.159z" fill="#fff"/><path d="M86.3 65.14c8.078 0 14.626-6.55 14.626-14.632S94.378 35.875 86.3 35.875c-8.077 0-14.625 6.551-14.625 14.633 0 8.081 6.548 14.633 14.625 14.633z" fill="url(#paint22_linear)"/><path d="M86.25 64.007c7.452 0 13.493-6.044 13.493-13.5 0-7.455-6.04-13.499-13.493-13.499-7.451 0-13.492 6.044-13.492 13.5 0 7.455 6.04 13.5 13.492 13.5z" fill="url(#paint23_linear)"/><path opacity=".66" d="M81.148 52.386l4.08 4.76 8.615-11.33" stroke="#fff" stroke-width="2" stroke-miterlimit="10" stroke-linecap="round" stroke-linejoin="round"/><defs><linearGradient id="paint0_linear" x1="156.333" y1="178.73" x2="33.526" y2="26.288" gradientUnits="userSpaceOnUse"><stop stop-color="#DAE3FE"/><stop offset="1" stop-color="#E9EFFD"/></linearGradient><linearGradient id="paint1_linear" x1="22.326" y1="48.397" x2="90.572" y2="101.42" gradientUnits="userSpaceOnUse"><stop stop-color="#DAE3FE"/><stop offset="1" stop-color="#E9EFFD"/></linearGradient><linearGradient id="paint2_linear" x1="69.456" y1="136.126" x2="71.479" y2="41.45" gradientUnits="userSpaceOnUse"><stop stop-color="#09005D"/><stop offset="1" stop-color="#1A0F91"/></linearGradient><linearGradient id="paint3_linear" x1="10.151" y1="91.007" x2="130.719" y2="91.007" gradientUnits="userSpaceOnUse"><stop stop-color="#6D71F9"/><stop offset="1" stop-color="#6D71F9"/></linearGradient><linearGradient id="paint4_linear" x1="75.402" y1="33.996" x2="69.641" y2="138.319" gradientUnits="userSpaceOnUse"><stop stop-color="#09005D"/><stop offset="1" stop-color="#1A0F91"/></linearGradient><linearGradient id="paint5_linear" x1="49.574" y1="71.671" x2="17.948" y2="129.506" gradientUnits="userSpaceOnUse"><stop stop-color="#4F52FF"/><stop offset="1" stop-color="#4042E2"/></linearGradient><linearGradient id="paint6_linear" x1="16.392" y1="125.873" x2="18.386" y2="125.873" gradientUnits="userSpaceOnUse"><stop stop-color="#FEBBBA"/><stop offset="1" stop-color="#FF928E"/></linearGradient><linearGradient id="paint7_linear" x1="58.656" y1="76.637" x2="27.031" y2="134.472" gradientUnits="userSpaceOnUse"><stop stop-color="#4F52FF"/><stop offset="1" stop-color="#4042E2"/></linearGradient><linearGradient id="paint8_linear" x1="26.468" y1="124.987" x2="28.451" y2="124.987" gradientUnits="userSpaceOnUse"><stop stop-color="#FEBBBA"/><stop offset="1" stop-color="#FF928E"/></linearGradient><linearGradient id="paint9_linear" x1="39.71" y1="75.76" x2="26.566" y2="100.013" gradientUnits="userSpaceOnUse"><stop stop-color="#09005D"/><stop offset="1" stop-color="#1A0F91"/></linearGradient><linearGradient id="paint10_linear" x1="50.941" y1="61.26" x2="23.655" y2="92.916" gradientUnits="userSpaceOnUse"><stop stop-color="#09005D"/><stop offset="1" stop-color="#1A0F91"/></linearGradient><linearGradient id="paint11_linear" x1="53.005" y1="3.587" x2="34.74" y2="69.152" gradientUnits="userSpaceOnUse"><stop stop-color="#E1473D"/><stop offset="1" stop-color="#E9605A"/></linearGradient><linearGradient id="paint12_linear" x1="82.841" y1="41.423" x2="51.22" y2="62.237" gradientUnits="userSpaceOnUse"><stop stop-color="#FEBBBA"/><stop offset="1" stop-color="#FF928E"/></linearGradient><linearGradient id="paint13_linear" x1="50.776" y1="62.831" x2="19.445" y2="91.621" gradientUnits="userSpaceOnUse"><stop stop-color="#FF928E"/><stop offset="1" stop-color="#FE7062"/></linearGradient><linearGradient id="paint14_linear" x1="51.177" y1="72.673" x2="39.804" y2="93.136" gradientUnits="userSpaceOnUse"><stop stop-color="#FEBBBA"/><stop offset="1" stop-color="#FF928E"/></linearGradient><linearGradient id="paint15_linear" x1="55.476" y1="75.063" x2="44.106" y2="95.523" gradientUnits="userSpaceOnUse"><stop stop-color="#FEBBBA"/><stop offset="1" stop-color="#FF928E"/></linearGradient><linearGradient id="paint16_linear" x1="38.511" y1="56.506" x2="23.073" y2="84.858" gradientUnits="userSpaceOnUse"><stop stop-color="#FEBBBA"/><stop offset="1" stop-color="#FF928E"/></linearGradient><linearGradient id="paint17_linear" x1="33.651" y1="61.73" x2="33.282" y2="73.036" gradientUnits="userSpaceOnUse"><stop stop-color="#FEBBBA"/><stop offset="1" stop-color="#FF928E"/></linearGradient><linearGradient id="paint18_linear" x1="30.651" y1="66.513" x2="37.306" y2="61.817" gradientUnits="userSpaceOnUse"><stop stop-color="#09005D"/><stop offset="1" stop-color="#1A0F91"/></linearGradient><linearGradient id="paint19_linear" x1="29.611" y1="73.328" x2="30.844" y2="65.589" gradientUnits="userSpaceOnUse"><stop stop-color="#FEBBBA"/><stop offset="1" stop-color="#FF928E"/></linearGradient><linearGradient id="paint20_linear" x1="93.834" y1="99.161" x2="90.8" y2="40.536" gradientUnits="userSpaceOnUse"><stop stop-color="#FF928E"/><stop offset="1" stop-color="#FE7062"/></linearGradient><linearGradient id="paint21_linear" x1="88.235" y1="55.24" x2="91.943" y2="-12.145" gradientUnits="userSpaceOnUse"><stop stop-color="#FF928E"/><stop offset="1" stop-color="#FE7062"/></linearGradient><linearGradient id="paint22_linear" x1="85.345" y1="53.319" x2="105.315" y2="-5.55" gradientUnits="userSpaceOnUse"><stop stop-color="#E1473D"/><stop offset="1" stop-color="#E9605A"/></linearGradient><linearGradient id="paint23_linear" x1="98.282" y1="12.891" x2="82.103" y2="63.425" gradientUnits="userSpaceOnUse"><stop stop-color="#E1473D"/><stop offset="1" stop-color="#E9605A"/></linearGradient></defs></svg>